<?xml version="1.0" standalone="no"?>
<svg xmlns="http://www.w3.org/2000/svg" width="1440" height="900" viewBox="0 0 1440 900" xmlns:c2pa="http://c2pa.org/manifest"><metadata><c2pa:manifest>AAAHomp1bWIAAAAeanVtZGMycGEAEQAQgAAAqgA4m3EDYzJwYQAAAAd8anVtYgAAAEdqdW1kYzJtYQARABCAAACqADibcQN1cm46dXVpZDo1MWQ0Y2Q3Zi1iMGZkLTQ2NTctYjM3MS04OGJhY2Y4OTQ4YTYAAAACw2p1bWIAAAApanVtZGMyYXMAEQAQgAAAqgA4m3EDYzJwYS5hc3NlcnRpb25zAAAAAO5qdW1iAAAAKWp1bWRjYm9yABEAEIAAAKoAOJtxA2MycGEuYWN0aW9ucy52MgAAAAC9Y2JvcqFnYWN0aW9uc4GkZmFjdGlvbmxjMnBhLmNyZWF0ZWRxZGlnaXRhbFNvdXJjZVR5cGV4Pmh0dHA6Ly9jdi5pcHRjLm9yZy9uZXdzY29kZXMvZGlnaXRhbHNvdXJjZXR5cGUvZGlnaXRhbENyZWF0aW9ubXNvZnR3YXJlQWdlbnSiZG5hbWVlTG9sbHlndmVyc2lvbmcxLjE5My4wZHdoZW50MjAyNi0wOS0xMlQxNjozNToyN1oAAACranVtYgAAAChqdW1kY2JvcgARABCAAACqADibcQNjMnBhLmhhc2guZGF0YQAAAAB7Y2JvcqVqZXhjbHVzaW9uc4GiZXN0YXJ0GL5mbGVuZ3RoGQowZG5hbWVuanVtYmYgbWFuaWZlc3RjYWxnZnNoYTI1NmRoYXNoWCDMMOC2ktysvSnJYWplSEdXeY64pV+dA2IHqPJcIHkjEGNwYWRIAAAAAAAAAAAAAAD5anVtYgAAACxqdW1kY2JvcgARABCAAACqADibcQN0b29scy5sb2xseS5leHBvcnQAAAAAxWNib3KoZ3N1cmZhY2VkZG9jc2ZlbmdpbmVtbm9kZSB2MjQuMjEuMGJvc2ZkYXJ3aW5mZm9ybWF0Y3N2Z2R0b29sblVSTCBTY3JlZW5zaG90ZGRhdGV4GDIwMjYtMDktMTJUMTY6MzU6MjcuMDQ5WmpkaW1lbnNpb25zbjE0NDAgw5cgOTAwIHB4ZmlucHV0c6JjdXJseB4vIy90b29sL3dvcmRtYXJrP3RleHQ9QXBwcm92ZWRmd2FpdE1zZDIwMDAAAAIJanVtYgAAACdqdW1kYzJjbAARABCAAACqADibcQNjMnBhLmNsYWltLnYyAAAAAdpjYm9ypmhkYzp0aXRsZW5VUkwgU2NyZWVuc2hvdGppbnN0YW5jZUlEeC11cm46dXVpZDpjMTAxNTM0ZC01M2Q0LTRmYzctYmQ0Yi1mMTcxMDFmMzYzNzJ0Y2xhaW1fZ2VuZXJhdG9yX2luZm+iZG5hbWVlTG9sbHlndmVyc2lvbmcxLjE5My4wcmNyZWF0ZWRfYXNzZXJ0aW9uc4OiY3VybHgqc2VsZiNqdW1iZj1jMnBhLmFzc2VydGlvbnMvYzJwYS5hY3Rpb25zLnYyZGhhc2hYIA189BSnTyB4U6DUX76D1RiewIQPfId7/TrzlCWIXDN9omN1cmx4KXNlbGYjanVtYmY9YzJwYS5hc3NlcnRpb25zL2MycGEuaGFzaC5kYXRhZGhhc2hYIGBgM6jK3cU5L6hysaERremyLwWovo8K3BhqJu4mWyssomN1cmx4LXNlbGYjanVtYmY9YzJwYS5hc3NlcnRpb25zL3Rvb2xzLmxvbGx5LmV4cG9ydGRoYXNoWCBkG5oW0lpO+mVfZNc10E5wB81VbNXUhdYUEqF/XUDOvGlzaWduYXR1cmV4GXNlbGYjanVtYmY9YzJwYS5zaWduYXR1cmVjYWxnZnNoYTI1NgAAAmFqdW1iAAAAKGp1bWRjMmNzABEAEIAAAKoAOJtxA2MycGEuc2lnbmF0dXJlAAAAAjFjYm9y0oRZAeCiASYYIYFZAdcwggHTMIIBeaADAgECAglcyW5ymMnO78owCgYIKoZIzj0EAwIwNTEOMAwGA1UECgwFTG9sbHkxIzAhBgNVBAMMGkxvbGx5IE9uLURldmljZSBDcmVkZW50aWFsMB4XDTI2MDkxMjE2MzQyN1oXDTI3MDkxMjE2MzUyN1owNTEOMAwGA1UECgwFTG9sbHkxIzAhBgNVBAMMGkxvbGx5IE9uLURldmljZSBDcmVkZW50aWFsMFkwEwYHKoZIzj0CAQYIKoZIzj0DAQcDQgAE6c4Kz1DfslJ8KY22XNkuv1v5Q/EeMWzkBStauK6nu8LOKXGYpUO9mGekhf6pcpTFtsoDRmk/YljScpINrKuSJqNyMHAwCQYDVR0TBAIwADAOBgNVHQ8BAf8EBAMCB4AwEwYDVR0lBAwwCgYIKwYBBQUHAwQwHQYDVR0OBBYEFMLhu/HfOZk5ECsEqn1/krC/RqRNMB8GA1UdIwQYMBaAFMLhu/HfOZk5ECsEqn1/krC/RqRNMAoGCCqGSM49BAMCA0gAMEUCIDwvetme6CgOsvJ2ZEjBBSOVY1B0xupFvnvbJB4RKKoIAiEAx1kxLq2KgxsWEzWW1qORmIlDzSsOfAicHzwkpq5TjO2g9lhAHWvwL1rnGGOVbGLOylg1PkkDcEox1wuLtKCnmrUrOZuYm5jPcFKVeXUBzVTyt6pj8ZeO0WAVpJ15zIaluC27JQ==</c2pa:manifest></metadata><defs><filter id="shadow-1" filterUnits="userSpaceOnUse" x="1211.0625" y="848.609375" width="230.9375" height="54.390625"><feGaussianBlur in="SourceGraphic" stdDeviation="2"/></filter></defs><g><g><rect x="0" y="0" width="1440" height="928" fill="rgb(255,255,255)"/><g><g><g><g><svg class="lolly-icon loading-icon" width="76" height="76" aria-hidden="true" viewBox="0 0 285.75 285.75" color="rgb(78, 94, 116)" x="682" y="408.5">
  <defs>
    <radialGradient id="k" cx="880.759" cy="708.563" r="30.665" fx="880.759" fy="708.563" gradientTransform="matrix(4.6 0 0 4.6 -3908.588 -3116.499)" gradientUnits="userSpaceOnUse" href="#a"/>
    <radialGradient id="l" cx="880.759" cy="708.563" r="104.651" fx="880.759" fy="708.563" gradientTransform="translate(-992.344 -770.4)scale(1.289)" gradientUnits="userSpaceOnUse" href="#b"/>
    <radialGradient id="m" cx="880.759" cy="708.563" r="30.665" fx="880.759" fy="708.563" gradientTransform="translate(-2464.807 -1954.987)scale(2.9607)" gradientUnits="userSpaceOnUse" href="#a"/>
    <radialGradient id="n" cx="880.759" cy="708.563" r="62.321" fx="880.759" fy="708.563" gradientTransform="translate(-992.344 -770.4)scale(1.289)" gradientUnits="userSpaceOnUse" href="#c"/>
    <radialGradient id="o" cx="880.759" cy="708.563" r="30.665" fx="880.759" fy="708.563" gradientTransform="translate(-1162.495 -907.287)scale(1.4821)" gradientUnits="userSpaceOnUse" href="#a"/>
    <radialGradient id="p" cx="880.759" cy="708.563" r="30.665" fx="880.759" fy="708.563" gradientTransform="translate(-992.344 -770.401)scale(1.289)" gradientUnits="userSpaceOnUse" href="#d"/>
    <radialGradient id="q" cx="185.5" cy="140.06" r="21.959" gradientTransform="matrix(1.0274 -.2742 .4957 1.857 -99.417 -67.432)" gradientUnits="userSpaceOnUse" href="#e"/>
    <radialGradient id="r" cx="134.04" cy="55.687" r="44.621" gradientTransform="matrix(.4818 0 0 .201 78.404 99.883)" gradientUnits="userSpaceOnUse" href="#f"/>
    <radialGradient id="D" cx="133.578" cy="55.41" r="44.621" fx="107821.34" fy="29802.447" gradientTransform="matrix(2.0599 -.891 .3412 .7887 -25.845 190.825)" gradientUnits="userSpaceOnUse" href="#g"/>
    <radialGradient id="x" cx="134.04" cy="55.687" r="44.621" gradientTransform="rotate(105.09 157.873 118.132)scale(1.3426 .5601)" gradientUnits="userSpaceOnUse" href="#f"/>
    <radialGradient id="A" cx="134.04" cy="55.687" r="44.621" gradientTransform="matrix(1.6527 0 0 .6895 -82.307 -22.216)" gradientUnits="userSpaceOnUse" href="#h"/>
    <radialGradient id="h" cx="134.04" cy="55.687" r="44.621" gradientTransform="matrix(3.3089 0 0 1.3804 -177.03 -56.743)" gradientUnits="userSpaceOnUse">
      <stop offset=".122" stop-color="#fff" style="stop-color: rgb(255, 255, 255);"/>
      <stop offset="1" stop-color="#fff" stop-opacity="0" style="stop-color: rgb(255, 255, 255); stop-opacity: 0;"/>
    </radialGradient>
    <radialGradient id="B" cx="134.04" cy="55.687" r="44.621" gradientTransform="matrix(-.7845 -.2551 .0877 -.3972 226.55 242.407)" gradientUnits="userSpaceOnUse" href="#f"/>
    <radialGradient id="C" cx="142.79" cy="98.641" r="44.621" gradientTransform="matrix(-2.6758 -.8841 .2991 -1.3766 432.77 441.768)" gradientUnits="userSpaceOnUse" href="#f"/>
    <radialGradient id="v" cx="133.578" cy="55.41" r="44.621" fx="107821.34" fy="29802.447" gradientTransform="matrix(2.0599 -.891 .3412 .7887 -25.845 190.825)" gradientUnits="userSpaceOnUse" href="#g"/>
    <linearGradient id="a">
      <stop offset="0" stop-opacity=".69" style="stop-opacity: 0.69;"/>
      <stop offset=".837" stop-opacity=".673" style="stop-opacity: 0.673;"/>
      <stop offset="1" stop-opacity="0" style="stop-opacity: 0;"/>
    </linearGradient>
    <linearGradient id="b">
      <stop offset="0" stop-color="#e3e3e3" style="stop-color: rgb(227, 227, 227);"/>
      <stop offset=".875" stop-color="#f6f6f6" style="stop-color: rgb(246, 246, 246);"/>
      <stop offset="1" stop-color="#6f6f6f" style="stop-color: rgb(111, 111, 111);"/>
    </linearGradient>
    <linearGradient id="c">
      <stop offset="0" stop-color="#cacaca" style="stop-color: rgb(202, 202, 202);"/>
      <stop offset=".768" stop-color="#f6f6f6" style="stop-color: rgb(246, 246, 246);"/>
      <stop offset="1" stop-color="#858585" style="stop-color: rgb(133, 133, 133);"/>
    </linearGradient>
    <linearGradient id="d">
      <stop offset="0" stop-color="#cacaca" style="stop-color: rgb(202, 202, 202);"/>
      <stop offset=".687" stop-color="#eaeaea" style="stop-color: rgb(234, 234, 234);"/>
      <stop offset="1" stop-color="#a6a6a6" style="stop-color: rgb(166, 166, 166);"/>
    </linearGradient>
    <linearGradient id="e">
      <stop offset=".476" stop-color="#fff" stop-opacity="0" style="stop-color: rgb(255, 255, 255); stop-opacity: 0;"/>
      <stop offset=".654" stop-color="#fff" style="stop-color: rgb(255, 255, 255);"/>
    </linearGradient>
    <linearGradient id="f">
      <stop offset="0" stop-color="#fff" style="stop-color: rgb(255, 255, 255);"/>
      <stop offset="1" stop-color="#fff" stop-opacity="0" style="stop-color: rgb(255, 255, 255); stop-opacity: 0;"/>
    </linearGradient>
    <linearGradient id="s" x1="-19.279" x2="-19.279" y1="48.713" y2="208.86" gradientTransform="translate(139.592 112.18)" gradientUnits="userSpaceOnUse" href="#f"/>
    <linearGradient id="u" x1="297.634" x2="450.179" y1="324.622" y2="154.152" gradientTransform="translate(12.44 11.846)scale(.4785)" gradientUnits="userSpaceOnUse" href="#j"/>
    <linearGradient id="j">
      <stop offset=".087" stop-color="#fff" stop-opacity="0" style="stop-color: rgb(255, 255, 255); stop-opacity: 0;"/>
      <stop offset=".554" stop-color="#fff" style="stop-color: rgb(255, 255, 255);"/>
    </linearGradient>
    <linearGradient id="g">
      <stop offset=".308" stop-color="#fff" style="stop-color: rgb(255, 255, 255);"/>
      <stop offset="1" stop-color="#fff" stop-opacity="0" style="stop-color: rgb(255, 255, 255); stop-opacity: 0;"/>
    </linearGradient>
    <linearGradient id="y" x1="-33.373" x2="-19.279" y1="49.632" y2="208.86" gradientUnits="userSpaceOnUse" href="#f"/>
    <linearGradient id="z" x1="-19.279" x2="-19.279" y1="48.713" y2="208.86" gradientUnits="userSpaceOnUse" href="#f"/>
    <filter id="t" width="1.018" height="1.01" x="-.009" y="-.005" color-interpolation-filters="sRGB">
      <feGaussianBlur stdDeviation=".375"/>
    </filter>
    <filter id="w" width="1.02" height="1.12" x="-.01" y="-.06" color-interpolation-filters="sRGB">
      <feGaussianBlur stdDeviation=".707"/>
    </filter>
  </defs>
  <g>
    <path fill="url(#k)" d="M142.88 1.817A141.06 141.06 0 0 1 283.933 142.87 141.06 141.06 0 0 1 142.88 283.933 141.06 141.06 0 0 1 1.817 142.871 141.06 141.06 0 0 1 142.88 1.817" opacity=".3" style="fill: url(&quot;#k&quot;); opacity: 0.3;"/>
    <g class="lolly-outer">
      <path fill="url(#l)" d="M142.876 7.989A134.887 134.887 0 0 0 7.99 142.874 134.887 134.887 0 0 0 142.876 277.76a134.887 134.887 0 0 0 134.885-134.887A134.887 134.887 0 0 0 142.876 7.989" style="fill: url(&quot;#l&quot;);"/>
      <path fill="#008657" d="M142.876 7.989a135 135 0 0 0-33.605 4.252A119.3 119.3 0 0 0 87.57 29.407a119.34 119.34 0 0 0-18.971 144.048 80.3 80.3 0 0 1-6.05-30.581 80.3 80.3 0 0 1 6.186-30.901A119.34 119.34 0 0 1 184 23.533a119.3 119.3 0 0 1 27.485 3.21A134.9 134.9 0 0 0 142.876 7.99m29.079 44.623a119.34 119.34 0 0 0-59.597 15.958 80.3 80.3 0 0 1 30.518-6.022 80.3 80.3 0 0 1 30.871 6.176 119.34 119.34 0 0 1 88.47 115.274 119.3 119.3 0 0 1-3.442 27.74 134.9 134.9 0 0 0 18.986-68.864 135 135 0 0 0-4.252-33.603 119.3 119.3 0 0 0-17.166-21.702 119.34 119.34 0 0 0-84.388-34.957M26.975 74.015a134.9 134.9 0 0 0-18.986 68.859 135 135 0 0 0 4.251 33.597 119.3 119.3 0 0 0 17.17 21.71 119.34 119.34 0 0 0 143.982 18.996 80.3 80.3 0 0 1-30.516 6.024 80.3 80.3 0 0 1-30.899-6.18 119.34 119.34 0 0 1-88.443-115.27 119.3 119.3 0 0 1 3.44-27.736m190.177 38.277a80.3 80.3 0 0 1 6.05 30.582 80.3 80.3 0 0 1-6.18 30.896 119.34 119.34 0 0 1-115.27 88.446 119.3 119.3 0 0 1-27.495-3.215 134.9 134.9 0 0 0 68.62 18.76 135 135 0 0 0 33.596-4.252 119.3 119.3 0 0 0 21.71-17.168 119.34 119.34 0 0 0 18.97-144.049" style="mix-blend-mode: multiply; fill: rgb(0, 134, 87);"/>
    </g>
    <path fill="url(#m)" d="M142.878 52.084a90.793 90.793 0 0 1 90.788 90.788 90.793 90.793 0 0 1-90.788 90.794 90.793 90.793 0 0 1-90.794-90.794 90.793 90.793 0 0 1 90.794-90.788" opacity=".6" style="fill: url(&quot;#m&quot;); opacity: 0.6;"/>
    <g class="lolly-mid">
      <path fill="url(#n)" d="M220.464 163.666a80.326 80.326 0 0 1-98.378 56.799 80.326 80.326 0 0 1-56.801-98.379 80.326 80.326 0 0 1 98.381-56.8 80.326 80.326 0 0 1 56.798 98.38" style="fill: url(&quot;#n&quot;);"/>
      <path fill="#008657" d="M214.185 179.852a57.95 57.95 0 0 0-6.56-40.723 57.95 57.95 0 0 0-41.68-28.346 39.53 39.53 0 0 1 15.935 25.722 57.95 57.95 0 0 1 9.428 49.505 57.95 57.95 0 0 1-24.153 33.435 80.33 80.33 0 0 0 47.03-39.593m5.271-60.873a80.33 80.33 0 0 0-39.607-47.415 57.95 57.95 0 0 0-40.72 6.56 57.95 57.95 0 0 0-28.218 41.504 39.53 39.53 0 0 1 25.618-15.716 57.95 57.95 0 0 1 49.481-9.47 57.95 57.95 0 0 1 33.446 24.537m-45.835 53.457a58 58 0 0 0 1.313-6.445 39.53 39.53 0 0 1-25.717 15.848 57.95 57.95 0 0 1-49.477 9.469 57.95 57.95 0 0 1-33.447-24.537 80.33 80.33 0 0 0 39.605 47.414 57.95 57.95 0 0 0 40.723-6.56 57.95 57.95 0 0 0 27-35.187zm-53.995 2.402a39.53 39.53 0 0 1-15.759-25.586v-.003a57.95 57.95 0 0 1-9.424-49.512 57.95 57.95 0 0 1 24.51-33.542 80.33 80.33 0 0 0-47.386 39.7 57.95 57.95 0 0 0 6.56 40.724 57.95 57.95 0 0 0 41.499 28.218z" style="mix-blend-mode: multiply; fill: rgb(0, 134, 87);"/>
    </g>
    <path fill="url(#o)" fill-opacity=".8" d="M142.876 97.426a45.45 45.45 0 0 1 45.447 45.448 45.45 45.45 0 0 1-45.447 45.45 45.45 45.45 0 0 1-45.45-45.45 45.45 45.45 0 0 1 45.45-45.448" style="fill: url(&quot;#o&quot;); fill-opacity: 0.8;"/>
    <g class="lolly-inner">
      <path fill="url(#p)" d="M142.876 103.35a39.525 39.525 0 0 1 39.523 39.524 39.525 39.525 0 0 1-39.523 39.525 39.525 39.525 0 0 1-39.526-39.525 39.525 39.525 0 0 1 39.526-39.524" style="fill: url(&quot;#p&quot;);"/>
      <path fill="#008657" d="M143.838 104.576c-14.54 0-31.592 16.58-31.931 35.539-.224 12.526 9.73 20.413 19.465 20.413 20.155 0 21.919-14.145 21.919-18.848 0-9.613-12.162-11.825-12.162-3.21 0 4.667-12.846 10.84-12.846-2.182 0-9.75 11.538-19.213 19.751-19.213 11.798 0 25.836 8.958 25.836 26.755 0 23.815-31.731 33.97-44.53 36.18a39.5 39.5 0 0 0 13.536 2.39 39.525 39.525 0 0 0 39.523-39.526 39.53 39.53 0 0 0-18.314-33.348c-6.044-3.278-13.037-4.95-20.247-4.95" style="mix-blend-mode: multiply; fill: rgb(0, 134, 87);"/>
    </g>
    <g>
      <path fill="#fff" fill-opacity=".444" d="M131.581 119.013c-17.621 8.806-18.467 29.11-12.983 44.163 0 0-6.741-2.235-6.741-20.462 0-15.502 15.412-23.7 19.724-23.7z" opacity=".684" style="fill: rgb(255, 255, 255); fill-opacity: 0.444; opacity: 0.684;"/>
      <path fill="url(#q)" d="M158.294 119.812c13.905 0 24.005 26.715 12.15 37.498 8.823-21.547-7.673-34.605-12.15-37.498" opacity=".494" style="fill: url(&quot;#q&quot;); opacity: 0.494;"/>
      <path fill="url(#r)" fill-opacity=".444" d="M163.05 115.707s-8.268-5.927-19.91-5.927-19.909 6.762-19.909 6.762 10.485-4.758 19.91-4.758c9.424 0 19.909 3.923 19.909 3.923" style="fill: url(&quot;#r&quot;); fill-opacity: 0.444;"/>
      <path fill="url(#s)" d="M212.735 130.585c-123.2 51.227-102.44 162.38-100.15 166.35l21.568 27.29c-10.163-43.135-6.36-62.042-6.36-85.5 0-72.01 84.937-108.14 84.937-108.14z" filter="url(#t)" transform="translate(12.44 11.846)scale(.4785)" style="fill: url(&quot;#s&quot;);"/>
      <path fill="url(#u)" d="M211.987 115.969c23.414 34.157-6.325 95.686-57.128 102.418 65.736-30.996 62.2-80.718 57.128-102.418" opacity=".494" style="fill: url(&quot;#u&quot;); opacity: 0.494;"/>
      <path fill="url(#v)" fill-opacity=".444" d="M355.01 135.555c-45.941-31.356-119.43-36.009-170.26 3.57 50.94-25.56 101.02-34.337 170.26-3.57" filter="url(#w)" transform="translate(12.44 11.846)scale(.4785)" style="fill: url(&quot;#v&quot;); fill-opacity: 0.444;"/>
      <path fill="url(#x)" fill-opacity=".444" d="M209.038 212.75c32.284-25.97 43.187-68.525 21.882-109.076 9.557 43.266 9.755 70.988-21.882 109.077" style="fill: url(&quot;#x&quot;); fill-opacity: 0.444;"/>
      <path fill="url(#y)" d="M67.321 28.209c-123.2 51.227-96.614 152.57-94.324 156.54l15.134 19.63c-4.355-18.482-29.268-128.29 79.19-176.17" filter="url(#t)" transform="translate(39.456 5.443)scale(.8626)" style="fill: url(&quot;#y&quot;);"/>
      <path fill="url(#z)" d="M73.143 18.405c-123.2 51.227-102.44 162.38-100.15 166.35l15.134 19.63c-4.355-18.482-26.817-135.03 85.012-185.98Z" filter="url(#t)" opacity=".583" transform="rotate(-175.18 128.86 5.816)scale(.8043 -.8043)" style="fill: url(&quot;#z&quot;); opacity: 0.583;"/>
      <path fill="url(#A)" fill-opacity=".6" d="M208.089 32.072C171.23 6.915 112.267 3.182 71.486 34.936c40.87-20.506 81.053-27.548 136.603-2.864" style="fill: url(&quot;#A&quot;); fill-opacity: 0.6;"/>
      <path fill="url(#B)" fill-opacity=".444" d="M95.604 166.306c14.297 20.182 41.813 31.435 65.21 19.436-22.009 5.505-41.98 3.36-65.21-19.436" style="fill: url(&quot;#B&quot;); fill-opacity: 0.444;"/>
      <path fill="url(#C)" fill-opacity=".444" d="M48.515 167.45c20.164 66.683 72.786 86.511 134.404 63.66-66.198 1.174-101.815 7.328-134.404-63.66" style="fill: url(&quot;#C&quot;); fill-opacity: 0.444;"/>
      <path fill="url(#D)" fill-opacity=".444" d="M355.01 135.555c-45.941-31.356-119.43-36.009-170.26 3.57 50.94-25.56 101.02-34.337 170.26-3.57" filter="url(#w)" transform="translate(12.44 11.846)scale(.4785)" style="fill: url(&quot;#D&quot;); fill-opacity: 0.444;"/>
    </g>
  </g>
  <style>.lolly-outer{transform-origin:50%;transform-box:fill-box;animation:3s linear infinite lolly-spin}.lolly-mid{transform-origin:50%;transform-box:fill-box;animation:6s linear infinite lolly-spin}.lolly-inner{transform-origin:50%;transform-box:fill-box;animation:9s linear infinite lolly-spin}@keyframes lolly-spin{to{transform:rotate(360deg)}}.lolly-icon{animation:3s infinite lolly-go}@keyframes lolly-go{0%{filter:hue-rotate(15deg)}50%{filter:hue-rotate(-15deg)}to{filter:hue-rotate(15deg)}}</style></svg></g><path d="M2.74,0Q2.06,0 1.62,-0.44Q1.18,-0.89 1.18,-1.56L1.18,-9.8L2.38,-9.8L2.38,-1.88Q2.38,-1.56 2.59,-1.34Q2.81,-1.13 3.12,-1.13L7.03,-1.13L7.03,0L2.74,0ZM10.83,0.14Q9.86,0.14 9.1,-0.3Q8.34,-0.75 7.91,-1.53Q7.47,-2.31 7.47,-3.33L7.47,-3.46Q7.47,-4.46 7.91,-5.23Q8.34,-6 9.1,-6.44Q9.86,-6.87 10.83,-6.87Q11.79,-6.87 12.54,-6.44Q13.3,-6.01 13.73,-5.24Q14.17,-4.48 14.17,-3.48L14.17,-3.33Q14.17,-2.31 13.73,-1.53Q13.3,-0.75 12.54,-0.3Q11.79,0.14 10.83,0.14ZM10.83,-0.87Q11.48,-0.87 11.98,-1.18Q12.48,-1.5 12.76,-2.05Q13.04,-2.61 13.04,-3.33L13.04,-3.48Q13.04,-4.19 12.76,-4.72Q12.48,-5.25 11.98,-5.56Q11.48,-5.86 10.83,-5.86Q10.18,-5.86 9.68,-5.56Q9.18,-5.25 8.89,-4.7Q8.6,-4.16 8.6,-3.46L8.6,-3.33Q8.6,-2.61 8.89,-2.05Q9.18,-1.5 9.68,-1.18Q10.18,-0.87 10.83,-0.87ZM19.89,0L19.87,-2.13L19.74,-2.51L19.74,-4.31Q19.74,-5.14 19.31,-5.49Q18.89,-5.85 18.16,-5.85Q17.61,-5.85 17.05,-5.65Q16.48,-5.45 16.07,-5.03L15.54,-5.82Q15.99,-6.34 16.72,-6.61Q17.44,-6.87 18.21,-6.87Q19.01,-6.87 19.61,-6.59Q20.2,-6.31 20.53,-5.76Q20.86,-5.21 20.86,-4.37L20.86,-2.21Q20.86,-1.65 20.87,-1.1Q20.89,-0.55 20.9,0L19.89,0ZM17.84,0.14Q16.69,0.14 16,-0.42Q15.3,-0.98 15.3,-1.88Q15.3,-2.46 15.65,-2.93Q16,-3.39 16.61,-3.66Q17.22,-3.93 17.98,-3.93Q19.19,-3.93 19.85,-3.39Q20.5,-2.84 20.5,-1.96L20.29,-1.96Q20.29,-0.97 19.64,-0.41Q19,0.14 17.84,0.14ZM18.13,-0.71Q18.9,-0.71 19.33,-1.04Q19.75,-1.36 19.75,-1.88Q19.75,-2.39 19.33,-2.71Q18.9,-3.02 18.12,-3.02Q17.35,-3.02 16.9,-2.71Q16.45,-2.39 16.45,-1.88Q16.45,-1.37 16.91,-1.04Q17.36,-0.71 18.13,-0.71ZM25.61,0.14Q24.69,0.14 23.97,-0.3Q23.25,-0.74 22.85,-1.51Q22.44,-2.29 22.44,-3.33L22.44,-3.46Q22.44,-4.47 22.86,-5.24Q23.27,-6.01 23.99,-6.44Q24.7,-6.87 25.61,-6.87Q26.48,-6.87 27.14,-6.44Q27.8,-6 28.16,-5.26L27.95,-5L27.95,-10.22L29.08,-10.22L29.08,0L28.05,0L28.05,-1.82L28.26,-1.6Q27.88,-0.79 27.2,-0.32Q26.51,0.14 25.61,0.14ZM25.76,-0.86Q26.42,-0.86 26.93,-1.17Q27.43,-1.48 27.72,-2.05Q28.01,-2.61 28.01,-3.36Q28.01,-4.12 27.72,-4.68Q27.43,-5.24 26.93,-5.55Q26.42,-5.86 25.76,-5.86Q25.13,-5.86 24.64,-5.56Q24.14,-5.26 23.86,-4.73Q23.57,-4.19 23.57,-3.46L23.57,-3.33Q23.57,-2.59 23.86,-2.03Q24.14,-1.48 24.64,-1.17Q25.13,-0.86 25.76,-0.86ZM31.7,0L31.7,-6.26L32.21,-5.75L30.4,-5.75L30.4,-6.73L32.84,-6.73L32.84,0L31.7,0ZM31.65,-8.21L31.65,-9.84L32.91,-9.84L32.91,-8.21L31.65,-8.21ZM34.95,0L34.95,-6.73L36.03,-6.73L36.03,-4.91L35.73,-4.91Q35.88,-5.49 36.17,-5.87Q36.45,-6.25 36.81,-6.47Q37.17,-6.69 37.55,-6.78Q37.93,-6.87 38.26,-6.87Q39.4,-6.87 40.1,-6.14Q40.81,-5.41 40.81,-3.96L40.81,0L39.68,0L39.68,-3.79Q39.68,-4.88 39.2,-5.36Q38.72,-5.83 37.97,-5.83Q37.45,-5.83 37.02,-5.6Q36.59,-5.37 36.34,-4.91Q36.08,-4.46 36.08,-3.78L36.08,0L34.95,0ZM42.13,2.8L42.13,1.85L46.15,1.85Q46.64,1.85 46.9,1.62Q47.17,1.38 47.17,0.96Q47.17,0.57 46.9,0.36Q46.64,0.14 46.15,0.14L43.95,0.14Q43.42,0.14 43.15,-0.11Q42.87,-0.36 42.84,-0.74Q42.8,-1.12 42.99,-1.5L43.63,-2.76L44.59,-2.51L44.02,-1.38Q43.96,-1.26 43.94,-1.11Q43.92,-0.97 44.02,-0.87Q44.11,-0.76 44.34,-0.76L46.31,-0.76Q47.17,-0.76 47.7,-0.33Q48.23,0.11 48.23,0.98Q48.23,1.51 47.98,1.92Q47.74,2.33 47.3,2.57Q46.86,2.8 46.26,2.8L42.13,2.8ZM45.22,-1.95Q44.38,-1.95 43.73,-2.26Q43.08,-2.57 42.71,-3.12Q42.34,-3.68 42.34,-4.38L42.34,-4.51Q42.34,-5.2 42.71,-5.74Q43.08,-6.27 43.73,-6.57Q44.38,-6.87 45.22,-6.87Q46.07,-6.87 46.72,-6.58Q47.37,-6.28 47.73,-5.75Q48.1,-5.23 48.1,-4.54L48.1,-4.38Q48.1,-3.68 47.73,-3.12Q47.37,-2.57 46.72,-2.26Q46.07,-1.95 45.22,-1.95ZM45.22,-2.83Q45.63,-2.83 46.04,-2.98Q46.44,-3.13 46.72,-3.48Q46.99,-3.83 46.99,-4.46Q46.99,-5.12 46.5,-5.53Q46,-5.94 45.22,-5.94Q44.43,-5.94 43.94,-5.54Q43.44,-5.13 43.44,-4.46Q43.44,-3.84 43.73,-3.48Q44.01,-3.13 44.42,-2.98Q44.83,-2.83 45.22,-2.83ZM45.18,-6.14L46.21,-8.28L47.35,-8.28L46.2,-6.14L45.18,-6.14ZM52.38,0L52.38,-1.54L53.75,-1.54L53.75,0L52.38,0ZM55.28,0L55.28,-1.54L56.65,-1.54L56.65,0L55.28,0ZM49.5,0L49.5,-1.54L50.88,-1.54L50.88,0L49.5,0Z" transform="translate(691.25,513.5)" fill="rgb(78,94,116)"/></g></g></g><g><rect x="1225.0625" y="862.609375" width="202.9375" height="26.390625" rx="13.1953125" ry="13.1953125" fill="rgba(0,0,0,0.35)" filter="url(#shadow-1)"/><rect x="1225.0625" y="861.609375" width="202.9375" height="26.390625" rx="13.1953125" ry="13.1953125" fill="rgb(139,30,30)"/><path d="M4.13,0.16Q3.14,0.16 2.41,-0.17Q1.68,-0.51 1.27,-1.2Q0.87,-1.88 0.87,-2.91L0.87,-8.4L2.35,-8.4L2.35,-3.02Q2.35,-2.11 2.83,-1.65Q3.32,-1.2 4.13,-1.2Q4.94,-1.2 5.43,-1.65Q5.91,-2.11 5.91,-3.02L5.91,-8.4L7.39,-8.4L7.39,-2.91Q7.39,-1.88 6.98,-1.2Q6.57,-0.51 5.85,-0.17Q5.12,0.16 4.13,0.16ZM8.87,0L8.87,-5.84L10.21,-5.84L10.21,-4.24L9.84,-4.24Q9.97,-4.77 10.21,-5.1Q10.45,-5.44 10.76,-5.63Q11.07,-5.81 11.39,-5.89Q11.71,-5.96 11.97,-5.96Q12.96,-5.96 13.56,-5.32Q14.15,-4.68 14.15,-3.48L14.15,0L12.77,0L12.77,-3.26Q12.77,-4.02 12.44,-4.36Q12.12,-4.7 11.59,-4.7Q11.21,-4.7 10.91,-4.53Q10.61,-4.36 10.44,-4.04Q10.26,-3.71 10.26,-3.23L10.26,0L8.87,0ZM17.43,0.1Q16.73,0.1 16.16,-0.1Q15.58,-0.3 15.2,-0.61L15.79,-1.55Q16.15,-1.3 16.57,-1.13Q17,-0.97 17.43,-0.97Q17.86,-0.97 18.13,-1.15Q18.39,-1.33 18.39,-1.63Q18.39,-1.91 18.17,-2.05Q17.96,-2.19 17.62,-2.28Q17.29,-2.37 16.91,-2.47Q16.53,-2.57 16.2,-2.75Q15.86,-2.93 15.65,-3.25Q15.44,-3.58 15.44,-4.13Q15.44,-4.94 16.04,-5.45Q16.65,-5.96 17.69,-5.96Q18.27,-5.96 18.78,-5.81Q19.3,-5.65 19.7,-5.38L19.1,-4.45Q18.78,-4.66 18.42,-4.78Q18.05,-4.9 17.68,-4.9Q17.26,-4.9 17.01,-4.72Q16.76,-4.54 16.76,-4.25Q16.76,-3.98 16.98,-3.83Q17.19,-3.69 17.54,-3.6Q17.88,-3.51 18.26,-3.4Q18.65,-3.29 18.99,-3.11Q19.34,-2.92 19.55,-2.59Q19.77,-2.26 19.77,-1.71Q19.77,-1.18 19.47,-0.77Q19.17,-0.36 18.64,-0.13Q18.12,0.1 17.43,0.1ZM21.5,0L21.5,-5.29L22.11,-4.67L20.44,-4.67L20.44,-5.84L22.88,-5.84L22.88,0L21.5,0ZM21.43,-7.01L21.43,-8.6L22.96,-8.6L22.96,-7.01L21.43,-7.01ZM24.02,2.4L24.02,1.26L27.56,1.26Q27.85,1.26 27.99,1.12Q28.14,0.99 28.14,0.74Q28.14,0.49 27.99,0.37Q27.85,0.24 27.56,0.24L25.52,0.24Q25.07,0.24 24.81,0.01Q24.55,-0.22 24.51,-0.57Q24.48,-0.93 24.66,-1.29L25.24,-2.47L26.41,-2.19L25.89,-1.15Q25.86,-1.08 25.85,-1.01Q25.84,-0.94 25.89,-0.89Q25.94,-0.84 26.05,-0.84L27.76,-0.84Q28.5,-0.84 28.97,-0.46Q29.44,-0.07 29.44,0.75Q29.44,1.23 29.22,1.6Q29,1.97 28.61,2.19Q28.22,2.4 27.7,2.4L24.02,2.4ZM26.68,-1.6Q25.93,-1.6 25.34,-1.87Q24.76,-2.15 24.43,-2.63Q24.1,-3.12 24.1,-3.75L24.1,-3.86Q24.1,-4.48 24.43,-4.95Q24.76,-5.43 25.34,-5.7Q25.93,-5.96 26.68,-5.96Q27.44,-5.96 28.03,-5.7Q28.61,-5.43 28.94,-4.96Q29.27,-4.49 29.27,-3.88L29.27,-3.75Q29.27,-3.12 28.94,-2.63Q28.61,-2.15 28.03,-1.87Q27.44,-1.6 26.68,-1.6ZM26.68,-2.65Q26.97,-2.65 27.25,-2.75Q27.53,-2.86 27.72,-3.11Q27.91,-3.37 27.91,-3.8Q27.91,-4.27 27.57,-4.56Q27.23,-4.85 26.68,-4.85Q26.14,-4.85 25.8,-4.56Q25.45,-4.28 25.45,-3.8Q25.45,-3.37 25.65,-3.11Q25.84,-2.86 26.12,-2.75Q26.41,-2.65 26.68,-2.65ZM26.4,-5.09L27.33,-7.1L28.73,-7.1L27.62,-5.09L26.4,-5.09ZM30.51,0L30.51,-5.84L31.85,-5.84L31.85,-4.24L31.48,-4.24Q31.6,-4.77 31.84,-5.1Q32.09,-5.44 32.39,-5.63Q32.7,-5.81 33.02,-5.89Q33.34,-5.96 33.61,-5.96Q34.6,-5.96 35.19,-5.32Q35.79,-4.68 35.79,-3.48L35.79,0L34.4,0L34.4,-3.26Q34.4,-4.02 34.08,-4.36Q33.75,-4.7 33.22,-4.7Q32.85,-4.7 32.55,-4.53Q32.25,-4.36 32.07,-4.04Q31.9,-3.71 31.9,-3.23L31.9,0L30.51,0ZM39.91,0.12Q39.03,0.12 38.37,-0.26Q37.7,-0.64 37.33,-1.31Q36.95,-1.99 36.95,-2.89L36.95,-3.01Q36.95,-3.85 37.3,-4.51Q37.65,-5.18 38.28,-5.57Q38.91,-5.96 39.74,-5.96Q40.62,-5.96 41.25,-5.54Q41.87,-5.11 42.16,-4.33Q42.45,-3.55 42.31,-2.49L37.95,-2.49L37.95,-3.47L41.57,-3.47L40.96,-2.98Q41.05,-3.57 40.91,-3.99Q40.78,-4.41 40.47,-4.63Q40.17,-4.85 39.75,-4.85Q39.28,-4.85 38.96,-4.61Q38.65,-4.37 38.48,-3.96Q38.32,-3.54 38.32,-3.01L38.32,-2.72Q38.32,-2.25 38.52,-1.88Q38.71,-1.51 39.08,-1.29Q39.46,-1.08 39.98,-1.08Q40.42,-1.08 40.73,-1.2Q41.04,-1.32 41.29,-1.56L42.07,-0.74Q41.72,-0.31 41.16,-0.1Q40.61,0.12 39.91,0.12ZM45.96,0.12Q45.17,0.12 44.55,-0.25Q43.92,-0.63 43.56,-1.3Q43.2,-1.97 43.2,-2.87L43.2,-2.99Q43.2,-3.87 43.57,-4.54Q43.93,-5.21 44.56,-5.59Q45.19,-5.96 45.97,-5.96Q46.64,-5.96 47.17,-5.66Q47.7,-5.35 48.02,-4.82L47.74,-4.49L47.74,-8.76L49.13,-8.76L49.13,0L47.88,0L47.88,-1.48L48.15,-1.19Q47.81,-0.57 47.24,-0.23Q46.68,0.12 45.96,0.12ZM46.18,-1.1Q46.66,-1.1 47.03,-1.32Q47.4,-1.54 47.62,-1.95Q47.83,-2.36 47.83,-2.92Q47.83,-3.49 47.62,-3.9Q47.4,-4.3 47.03,-4.52Q46.66,-4.75 46.18,-4.75Q45.73,-4.75 45.37,-4.53Q45.01,-4.32 44.8,-3.93Q44.59,-3.53 44.59,-2.99L44.59,-2.87Q44.59,-2.33 44.8,-1.93Q45.01,-1.53 45.37,-1.31Q45.73,-1.1 46.18,-1.1ZM55.79,0.12Q55,0.12 54.37,-0.25Q53.75,-0.63 53.39,-1.3Q53.03,-1.97 53.03,-2.87L53.03,-2.99Q53.03,-3.87 53.39,-4.54Q53.76,-5.21 54.39,-5.59Q55.02,-5.96 55.8,-5.96Q56.47,-5.96 57,-5.66Q57.53,-5.35 57.85,-4.82L57.57,-4.49L57.57,-8.76L58.96,-8.76L58.96,0L57.71,0L57.71,-1.48L57.97,-1.19Q57.63,-0.57 57.07,-0.23Q56.51,0.12 55.79,0.12ZM56.01,-1.1Q56.48,-1.1 56.86,-1.32Q57.23,-1.54 57.45,-1.95Q57.66,-2.36 57.66,-2.92Q57.66,-3.49 57.45,-3.9Q57.23,-4.3 56.86,-4.52Q56.48,-4.75 56.01,-4.75Q55.56,-4.75 55.2,-4.53Q54.83,-4.32 54.62,-3.93Q54.41,-3.53 54.41,-2.99L54.41,-2.87Q54.41,-2.33 54.62,-1.93Q54.83,-1.53 55.2,-1.31Q55.56,-1.1 56.01,-1.1ZM63.15,0.12Q62.28,0.12 61.61,-0.26Q60.95,-0.64 60.57,-1.31Q60.2,-1.99 60.2,-2.89L60.2,-3.01Q60.2,-3.85 60.55,-4.51Q60.89,-5.18 61.52,-5.57Q62.16,-5.96 62.99,-5.96Q63.87,-5.96 64.49,-5.54Q65.11,-5.11 65.4,-4.33Q65.69,-3.55 65.55,-2.49L61.2,-2.49L61.2,-3.47L64.82,-3.47L64.21,-2.98Q64.3,-3.57 64.16,-3.99Q64.02,-4.41 63.72,-4.63Q63.42,-4.85 62.99,-4.85Q62.53,-4.85 62.21,-4.61Q61.89,-4.37 61.73,-3.96Q61.57,-3.54 61.57,-3.01L61.57,-2.72Q61.57,-2.25 61.76,-1.88Q61.96,-1.51 62.33,-1.29Q62.7,-1.08 63.22,-1.08Q63.67,-1.08 63.98,-1.2Q64.29,-1.32 64.53,-1.56L65.31,-0.74Q64.96,-0.31 64.41,-0.1Q63.85,0.12 63.15,0.12ZM68.2,0L65.95,-5.84L67.39,-5.84L69.2,-0.91L68.66,-0.91L70.47,-5.84L71.91,-5.84L69.67,0L68.2,0ZM75.25,0.12Q74.37,0.12 73.71,-0.26Q73.04,-0.64 72.67,-1.31Q72.29,-1.99 72.29,-2.89L72.29,-3.01Q72.29,-3.85 72.64,-4.51Q72.99,-5.18 73.62,-5.57Q74.25,-5.96 75.08,-5.96Q75.96,-5.96 76.59,-5.54Q77.21,-5.11 77.5,-4.33Q77.79,-3.55 77.65,-2.49L73.29,-2.49L73.29,-3.47L76.91,-3.47L76.3,-2.98Q76.39,-3.57 76.25,-3.99Q76.12,-4.41 75.81,-4.63Q75.51,-4.85 75.09,-4.85Q74.62,-4.85 74.3,-4.61Q73.99,-4.37 73.82,-3.96Q73.66,-3.54 73.66,-3.01L73.66,-2.72Q73.66,-2.25 73.86,-1.88Q74.05,-1.51 74.42,-1.29Q74.8,-1.08 75.32,-1.08Q75.76,-1.08 76.07,-1.2Q76.38,-1.32 76.63,-1.56L77.41,-0.74Q77.06,-0.31 76.5,-0.1Q75.95,0.12 75.25,0.12ZM80.63,0Q79.84,0 79.36,-0.43Q78.89,-0.86 78.89,-1.62L78.89,-8.21L79.51,-7.59L77.92,-7.59L77.92,-8.76L80.27,-8.76L80.27,-1.59Q80.27,-1.41 80.4,-1.28Q80.53,-1.16 80.71,-1.16L81.33,-1.16L81.33,0L80.63,0ZM84.9,0.12Q84.04,0.12 83.36,-0.26Q82.68,-0.64 82.28,-1.32Q81.89,-2 81.89,-2.88L81.89,-2.99Q81.89,-3.87 82.28,-4.54Q82.68,-5.21 83.36,-5.59Q84.04,-5.96 84.9,-5.96Q85.76,-5.96 86.44,-5.59Q87.11,-5.21 87.51,-4.54Q87.9,-3.87 87.9,-3L87.9,-2.88Q87.9,-2 87.51,-1.32Q87.11,-0.64 86.44,-0.26Q85.76,0.12 84.9,0.12ZM84.9,-1.1Q85.38,-1.1 85.74,-1.33Q86.11,-1.55 86.31,-1.96Q86.51,-2.36 86.51,-2.88L86.51,-3Q86.51,-3.52 86.31,-3.91Q86.11,-4.3 85.74,-4.52Q85.38,-4.75 84.9,-4.75Q84.43,-4.75 84.06,-4.52Q83.7,-4.29 83.49,-3.9Q83.28,-3.51 83.28,-2.99L83.28,-2.88Q83.28,-2.36 83.49,-1.96Q83.7,-1.55 84.06,-1.33Q84.43,-1.1 84.9,-1.1ZM89.13,2.4L89.13,-5.84L90.43,-5.84L90.43,-4.43L90.16,-4.73Q90.49,-5.3 91.05,-5.63Q91.6,-5.96 92.29,-5.96Q93.08,-5.96 93.7,-5.59Q94.33,-5.21 94.69,-4.54Q95.06,-3.87 95.06,-2.99L95.06,-2.87Q95.06,-1.97 94.7,-1.3Q94.34,-0.63 93.72,-0.25Q93.1,0.12 92.3,0.12Q91.64,0.12 91.1,-0.19Q90.56,-0.49 90.23,-1.02L90.52,-1.35L90.52,2.4L89.13,2.4ZM92.08,-1.1Q92.52,-1.1 92.89,-1.31Q93.25,-1.53 93.46,-1.93Q93.67,-2.33 93.67,-2.87L93.67,-2.99Q93.67,-3.53 93.46,-3.93Q93.25,-4.32 92.89,-4.53Q92.52,-4.75 92.08,-4.75Q91.61,-4.75 91.23,-4.52Q90.86,-4.3 90.64,-3.9Q90.43,-3.49 90.43,-2.92Q90.43,-2.36 90.64,-1.95Q90.86,-1.54 91.23,-1.32Q91.61,-1.1 92.08,-1.1ZM96.29,0L96.29,-5.84L97.62,-5.84L97.62,-4.25L97.25,-4.26Q97.42,-4.94 97.76,-5.31Q98.11,-5.67 98.53,-5.82Q98.94,-5.96 99.33,-5.96Q100.06,-5.96 100.57,-5.58Q101.08,-5.19 101.27,-4.42L100.73,-4.42Q100.96,-5.05 101.35,-5.38Q101.75,-5.72 102.18,-5.84Q102.61,-5.96 102.95,-5.96Q103.9,-5.96 104.5,-5.36Q105.1,-4.75 105.1,-3.55L105.1,0L103.73,0L103.73,-3.35Q103.73,-4.06 103.42,-4.38Q103.11,-4.7 102.6,-4.7Q102.07,-4.7 101.73,-4.35Q101.39,-3.99 101.39,-3.35L101.39,0L100.01,0L100.01,-3.35Q100.01,-4.06 99.7,-4.38Q99.4,-4.7 98.9,-4.7Q98.37,-4.7 98.02,-4.35Q97.67,-3.99 97.67,-3.35L97.67,0L96.29,0ZM109.22,0.12Q108.35,0.12 107.68,-0.26Q107.01,-0.64 106.64,-1.31Q106.27,-1.99 106.27,-2.89L106.27,-3.01Q106.27,-3.85 106.61,-4.51Q106.96,-5.18 107.59,-5.57Q108.22,-5.96 109.05,-5.96Q109.94,-5.96 110.56,-5.54Q111.18,-5.11 111.47,-4.33Q111.76,-3.55 111.62,-2.49L107.26,-2.49L107.26,-3.47L110.88,-3.47L110.27,-2.98Q110.36,-3.57 110.23,-3.99Q110.09,-4.41 109.79,-4.63Q109.48,-4.85 109.06,-4.85Q108.59,-4.85 108.28,-4.61Q107.96,-4.37 107.8,-3.96Q107.63,-3.54 107.63,-3.01L107.63,-2.72Q107.63,-2.25 107.83,-1.88Q108.02,-1.51 108.4,-1.29Q108.77,-1.08 109.29,-1.08Q109.74,-1.08 110.04,-1.2Q110.35,-1.32 110.6,-1.56L111.38,-0.74Q111.03,-0.31 110.48,-0.1Q109.92,0.12 109.22,0.12ZM112.87,0L112.87,-5.84L114.2,-5.84L114.2,-4.24L113.83,-4.24Q113.96,-4.77 114.2,-5.1Q114.44,-5.44 114.75,-5.63Q115.06,-5.81 115.38,-5.89Q115.7,-5.96 115.97,-5.96Q116.95,-5.96 117.55,-5.32Q118.15,-4.68 118.15,-3.48L118.15,0L116.76,0L116.76,-3.26Q116.76,-4.02 116.43,-4.36Q116.11,-4.7 115.58,-4.7Q115.21,-4.7 114.91,-4.53Q114.61,-4.36 114.43,-4.04Q114.25,-3.71 114.25,-3.23L114.25,0L112.87,0ZM121.82,0Q121.51,0 121.19,-0.08Q120.87,-0.15 120.6,-0.35Q120.34,-0.54 120.18,-0.87Q120.02,-1.21 120.02,-1.72L120.02,-7.27L121.4,-7.27L121.4,-1.61Q121.4,-1.43 121.53,-1.3Q121.66,-1.17 121.84,-1.17L122.76,-1.17L122.76,0L121.82,0ZM119.03,-4.67L119.03,-5.84L122.76,-5.84L122.76,-4.67L119.03,-4.67ZM129.31,0.12Q128.43,0.12 127.75,-0.26Q127.06,-0.64 126.66,-1.31Q126.27,-1.99 126.27,-2.86L126.27,-2.99Q126.27,-3.88 126.67,-4.55Q127.07,-5.21 127.76,-5.59Q128.44,-5.96 129.31,-5.96Q129.97,-5.96 130.52,-5.71Q131.08,-5.45 131.44,-4.99L130.59,-4.15Q130.35,-4.42 130.02,-4.56Q129.7,-4.69 129.32,-4.69Q128.85,-4.69 128.47,-4.49Q128.09,-4.28 127.87,-3.9Q127.65,-3.51 127.65,-2.99L127.65,-2.86Q127.65,-2.34 127.88,-1.96Q128.1,-1.58 128.48,-1.36Q128.86,-1.15 129.34,-1.15Q129.7,-1.15 130.03,-1.28Q130.36,-1.4 130.63,-1.68L131.46,-0.85Q131.11,-0.4 130.54,-0.14Q129.97,0.12 129.31,0.12ZM135.99,0L135.98,-1.78L135.82,-2.29L135.82,-3.69Q135.82,-4.27 135.5,-4.51Q135.17,-4.75 134.66,-4.75Q134.23,-4.75 133.75,-4.58Q133.28,-4.42 132.93,-4.1L132.31,-5.03Q132.7,-5.46 133.36,-5.71Q134.02,-5.96 134.75,-5.96Q135.48,-5.96 136.02,-5.71Q136.57,-5.46 136.88,-4.97Q137.19,-4.49 137.19,-3.77L137.19,-1.88Q137.19,-1.4 137.19,-0.94Q137.2,-0.47 137.22,0L135.99,0ZM134.3,0.12Q133.32,0.12 132.72,-0.37Q132.13,-0.85 132.13,-1.62Q132.13,-2.14 132.42,-2.55Q132.71,-2.95 133.24,-3.18Q133.78,-3.41 134.49,-3.41Q135.56,-3.41 136.1,-2.95Q136.64,-2.48 136.64,-1.71L136.28,-1.71Q136.28,-0.84 135.78,-0.36Q135.27,0.12 134.3,0.12ZM134.68,-0.89Q135.21,-0.89 135.52,-1.11Q135.83,-1.32 135.83,-1.67Q135.83,-2.01 135.52,-2.23Q135.21,-2.44 134.68,-2.44Q134.15,-2.44 133.84,-2.23Q133.52,-2.01 133.52,-1.67Q133.52,-1.33 133.84,-1.11Q134.16,-0.89 134.68,-0.89ZM140.89,0Q140.57,0 140.26,-0.08Q139.94,-0.15 139.67,-0.35Q139.41,-0.54 139.25,-0.87Q139.09,-1.21 139.09,-1.72L139.09,-7.27L140.47,-7.27L140.47,-1.61Q140.47,-1.43 140.6,-1.3Q140.73,-1.17 140.91,-1.17L141.83,-1.17L141.83,0L140.89,0ZM138.1,-4.67L138.1,-5.84L141.83,-5.84L141.83,-4.67L138.1,-4.67ZM146.5,0L146.49,-1.78L146.33,-2.29L146.33,-3.69Q146.33,-4.27 146.01,-4.51Q145.68,-4.75 145.18,-4.75Q144.74,-4.75 144.26,-4.58Q143.79,-4.42 143.44,-4.1L142.82,-5.03Q143.21,-5.46 143.87,-5.71Q144.53,-5.96 145.26,-5.96Q145.99,-5.96 146.53,-5.71Q147.08,-5.46 147.39,-4.97Q147.7,-4.49 147.7,-3.77L147.7,-1.88Q147.7,-1.4 147.71,-0.94Q147.72,-0.47 147.73,0L146.5,0ZM144.81,0.12Q143.83,0.12 143.23,-0.37Q142.64,-0.85 142.64,-1.62Q142.64,-2.14 142.93,-2.55Q143.22,-2.95 143.75,-3.18Q144.29,-3.41 145,-3.41Q146.07,-3.41 146.61,-2.95Q147.15,-2.48 147.15,-1.71L146.8,-1.71Q146.8,-0.84 146.29,-0.36Q145.79,0.12 144.81,0.12ZM145.19,-0.89Q145.72,-0.89 146.03,-1.11Q146.34,-1.32 146.34,-1.67Q146.34,-2.01 146.03,-2.23Q145.72,-2.44 145.19,-2.44Q144.66,-2.44 144.35,-2.23Q144.03,-2.01 144.03,-1.67Q144.03,-1.33 144.35,-1.11Q144.67,-0.89 145.19,-0.89ZM150.98,0Q150.18,0 149.71,-0.43Q149.23,-0.86 149.23,-1.62L149.23,-8.21L149.85,-7.59L148.26,-7.59L148.26,-8.76L150.62,-8.76L150.62,-1.59Q150.62,-1.41 150.74,-1.28Q150.87,-1.16 151.06,-1.16L151.67,-1.16L151.67,0L150.98,0ZM155.25,0.12Q154.39,0.12 153.71,-0.26Q153.02,-0.64 152.63,-1.32Q152.24,-2 152.24,-2.88L152.24,-2.99Q152.24,-3.87 152.63,-4.54Q153.02,-5.21 153.71,-5.59Q154.39,-5.96 155.25,-5.96Q156.1,-5.96 156.78,-5.59Q157.46,-5.21 157.85,-4.54Q158.24,-3.87 158.24,-3L158.24,-2.88Q158.24,-2 157.85,-1.32Q157.46,-0.64 156.78,-0.26Q156.1,0.12 155.25,0.12ZM155.25,-1.1Q155.72,-1.1 156.09,-1.33Q156.45,-1.55 156.65,-1.96Q156.86,-2.36 156.86,-2.88L156.86,-3Q156.86,-3.52 156.65,-3.91Q156.45,-4.3 156.09,-4.52Q155.72,-4.75 155.25,-4.75Q154.77,-4.75 154.41,-4.52Q154.04,-4.29 153.83,-3.9Q153.62,-3.51 153.62,-2.99L153.62,-2.88Q153.62,-2.36 153.83,-1.96Q154.04,-1.55 154.41,-1.33Q154.77,-1.1 155.25,-1.1ZM159.02,2.4L159.02,1.26L162.56,1.26Q162.85,1.26 162.99,1.12Q163.14,0.99 163.14,0.74Q163.14,0.49 162.99,0.37Q162.85,0.24 162.56,0.24L160.52,0.24Q160.07,0.24 159.81,0.01Q159.55,-0.22 159.51,-0.57Q159.48,-0.93 159.66,-1.29L160.24,-2.47L161.41,-2.19L160.89,-1.15Q160.86,-1.08 160.85,-1.01Q160.84,-0.94 160.89,-0.89Q160.94,-0.84 161.05,-0.84L162.76,-0.84Q163.5,-0.84 163.97,-0.46Q164.44,-0.07 164.44,0.75Q164.44,1.23 164.22,1.6Q164,1.97 163.61,2.19Q163.22,2.4 162.7,2.4L159.02,2.4ZM161.68,-1.6Q160.93,-1.6 160.34,-1.87Q159.76,-2.15 159.43,-2.63Q159.1,-3.12 159.1,-3.75L159.1,-3.86Q159.1,-4.48 159.43,-4.95Q159.76,-5.43 160.34,-5.7Q160.93,-5.96 161.68,-5.96Q162.44,-5.96 163.03,-5.7Q163.61,-5.43 163.94,-4.96Q164.27,-4.49 164.27,-3.88L164.27,-3.75Q164.27,-3.12 163.94,-2.63Q163.61,-2.15 163.03,-1.87Q162.44,-1.6 161.68,-1.6ZM161.68,-2.65Q161.97,-2.65 162.25,-2.75Q162.53,-2.86 162.72,-3.11Q162.91,-3.37 162.91,-3.8Q162.91,-4.27 162.57,-4.56Q162.23,-4.85 161.68,-4.85Q161.14,-4.85 160.8,-4.56Q160.45,-4.28 160.45,-3.8Q160.45,-3.37 160.65,-3.11Q160.84,-2.86 161.12,-2.75Q161.41,-2.65 161.68,-2.65ZM161.4,-5.09L162.33,-7.1L163.73,-7.1L162.62,-5.09L161.4,-5.09Z" transform="translate(1235.06,878.61)" fill="rgb(255,255,255)"/></g></g></g></svg>