<?xml version="1.0" standalone="no"?>
<svg xmlns="http://www.w3.org/2000/svg" width="1200px" height="2463.8125px" viewBox="0 0 1200 2463.8125" xmlns:c2pa="http://c2pa.org/manifest"><metadata><c2pa:manifest>AAAHyGp1bWIAAAAeanVtZGMycGEAEQAQgAAAqgA4m3EDYzJwYQAAAAeianVtYgAAAEdqdW1kYzJtYQARABCAAACqADibcQN1cm46dXVpZDpmNGQ5ZWFhOS03YjQzLTRlZTQtOGE4YS03NGY3ZmUzMWIzMjQAAAAC6Gp1bWIAAAApanVtZGMyYXMAEQAQgAAAqgA4m3EDYzJwYS5hc3NlcnRpb25zAAAAAO5qdW1iAAAAKWp1bWRjYm9yABEAEIAAAKoAOJtxA2MycGEuYWN0aW9ucy52MgAAAAC9Y2JvcqFnYWN0aW9uc4GkZmFjdGlvbmxjMnBhLmNyZWF0ZWRxZGlnaXRhbFNvdXJjZVR5cGV4Pmh0dHA6Ly9jdi5pcHRjLm9yZy9uZXdzY29kZXMvZGlnaXRhbHNvdXJjZXR5cGUvZGlnaXRhbENyZWF0aW9ubXNvZnR3YXJlQWdlbnSiZG5hbWVlTG9sbHlndmVyc2lvbmcxLjE5Ny4wZHdoZW50MjAyNi0wOS0xNFQwODozMDozNVoAAACranVtYgAAAChqdW1kY2JvcgARABCAAACqADibcQNjMnBhLmhhc2guZGF0YQAAAAB7Y2JvcqVqZXhjbHVzaW9uc4GiZXN0YXJ0GM5mbGVuZ3RoGQpgZG5hbWVuanVtYmYgbWFuaWZlc3RjYWxnZnNoYTI1NmRoYXNoWCApwJfvKruTd5BZeEIIJaaORYxd8mn5R7XYesLvwzwbcWNwYWRIAAAAAAAAAAAAAAEeanVtYgAAACxqdW1kY2JvcgARABCAAACqADibcQN0b29scy5sb2xseS5leHBvcnQAAAAA6mNib3KnZ3N1cmZhY2VkZG9jc2ZlbmdpbmVtbm9kZSB2MjQuMjEuMGJvc2ZkYXJ3aW5mZm9ybWF0Y3N2Z2R0b29sb0xlYXJuaW5nIG1vZHVsZWRkYXRleBgyMDI2LTA5LTE0VDA4OjMwOjM1LjA4N1pmaW5wdXRzo2N1cmx4IGh0dHA6Ly8xMjcuMC4wLjE6NTE3My8jL2xlYXJuaW5nZHZpZXdwLmxlYXJuaW5nLWF1dGhvcmZzb3VyY2V4KXNjcmlwdHMvY2hlY2stbGVhcm5pbmctYnJvd3Nlci50cyAtLXNob3RzAAACCmp1bWIAAAAnanVtZGMyY2wAEQAQgAAAqgA4m3EDYzJwYS5jbGFpbS52MgAAAAHbY2JvcqZoZGM6dGl0bGVvTGVhcm5pbmcgbW9kdWxlamluc3RhbmNlSUR4LXVybjp1dWlkOmNkYWVjYzg3LTU5NTEtNGE2MC1hYzU0LTc5M2U0NDMxOGJhN3RjbGFpbV9nZW5lcmF0b3JfaW5mb6JkbmFtZWVMb2xseWd2ZXJzaW9uZzEuMTk3LjByY3JlYXRlZF9hc3NlcnRpb25zg6JjdXJseCpzZWxmI2p1bWJmPWMycGEuYXNzZXJ0aW9ucy9jMnBhLmFjdGlvbnMudjJkaGFzaFggPm7ja3eI67mA/8YlQV6hkltGJsoENZfx20JnCUbcdmaiY3VybHgpc2VsZiNqdW1iZj1jMnBhLmFzc2VydGlvbnMvYzJwYS5oYXNoLmRhdGFkaGFzaFggeJ5MGug2YbJKjiYsk7igw5qgaB1ymJ87jDGEULQHwGyiY3VybHgtc2VsZiNqdW1iZj1jMnBhLmFzc2VydGlvbnMvdG9vbHMubG9sbHkuZXhwb3J0ZGhhc2hYIE2Wm+tAhPOp8UR9w/5+uPGYca7qvjIaz7Bb+3Jbg4RjaXNpZ25hdHVyZXgZc2VsZiNqdW1iZj1jMnBhLnNpZ25hdHVyZWNhbGdmc2hhMjU2AAACYWp1bWIAAAAoanVtZGMyY3MAEQAQgAAAqgA4m3EDYzJwYS5zaWduYXR1cmUAAAACMWNib3LShFkB4KIBJhghgVkB1zCCAdMwggF5oAMCAQICCWPuC44hrDbjVjAKBggqhkjOPQQDAjA1MQ4wDAYDVQQKDAVMb2xseTEjMCEGA1UEAwwaTG9sbHkgT24tRGV2aWNlIENyZWRlbnRpYWwwHhcNMjYwOTE0MDgyOTM1WhcNMjcwOTE0MDgzMDM1WjA1MQ4wDAYDVQQKDAVMb2xseTEjMCEGA1UEAwwaTG9sbHkgT24tRGV2aWNlIENyZWRlbnRpYWwwWTATBgcqhkjOPQIBBggqhkjOPQMBBwNCAATXuLseRULnfVvNeEB57+7D0/o7oA4q4bT9ZcPaMwT8p4E8nbSqfOvSsAIFa54E2JuNQaaKnzUqNACP6D8aPsupo3IwcDAJBgNVHRMEAjAAMA4GA1UdDwEB/wQEAwIHgDATBgNVHSUEDDAKBggrBgEFBQcDBDAdBgNVHQ4EFgQUAmIikfIkahwjxlZZYJYNM5njz/wwHwYDVR0jBBgwFoAUAmIikfIkahwjxlZZYJYNM5njz/wwCgYIKoZIzj0EAwIDSAAwRQIgSI5NBlsLp6mYhuH9xZ1vQrUukyyIM4121infLvXFQMQCIQDRGWbG3vnjvDcanYLeqy0IVyYakc4qDSh7i9MPb+Lwc6D2WEAz163ushjSKoMMFW09/fKPzKbf/etADErLwNzQbPPMyMv8mzsfVssfTsbNzlhF4G5d8PsKtJuanvNrLxEkU1xG</c2pa:manifest></metadata><defs><filter id="shadow-1" filterUnits="userSpaceOnUse" x="11.5" y="37.5" width="98.265625" height="54.5"><feGaussianBlur in="SourceGraphic" stdDeviation="1.5"/></filter><clipPath id="fcinsetclip-2" clipPathUnits="userSpaceOnUse"><rect x="24" y="49" width="73.265625" height="29.5" rx="14.75" ry="14.75" fill="#fff"/></clipPath><filter id="shadow-3" filterUnits="userSpaceOnUse" x="1059.4375" y="37.5" width="129.0625" height="54.5"><feGaussianBlur in="SourceGraphic" stdDeviation="1.5"/></filter><clipPath id="fcinsetclip-4" clipPathUnits="userSpaceOnUse"><rect x="1071.9375" y="49" width="104.0625" height="29.5" rx="14.75" ry="14.75" fill="#fff"/></clipPath><clipPath id="fcctl-6" clipPathUnits="userSpaceOnUse"><rect x="34" y="158.5" width="1132" height="21"/></clipPath><filter id="shadow-7" filterUnits="userSpaceOnUse" x="11.5" y="227" width="109.453125" height="54.5"><feGaussianBlur in="SourceGraphic" stdDeviation="1.5"/></filter><clipPath id="fcinsetclip-8" clipPathUnits="userSpaceOnUse"><rect x="24" y="238.5" width="84.453125" height="29.5" rx="14.75" ry="14.75" fill="#fff"/></clipPath><filter id="shadow-9" filterUnits="userSpaceOnUse" x="107.953125" y="227" width="110.40625" height="54.5"><feGaussianBlur in="SourceGraphic" stdDeviation="1.5"/></filter><clipPath id="fcinsetclip-10" clipPathUnits="userSpaceOnUse"><rect x="120.453125" y="238.5" width="85.40625" height="29.5" rx="14.75" ry="14.75" fill="#fff"/></clipPath><filter id="shadow-11" filterUnits="userSpaceOnUse" x="205.359375" y="227" width="154.75" height="54.5"><feGaussianBlur in="SourceGraphic" stdDeviation="1.5"/></filter><clipPath id="fcinsetclip-12" clipPathUnits="userSpaceOnUse"><rect x="217.859375" y="238.5" width="129.75" height="29.5" rx="14.75" ry="14.75" fill="#fff"/></clipPath><filter id="shadow-13" filterUnits="userSpaceOnUse" x="11.5" y="431.84375" width="275" height="54.5"><feGaussianBlur in="SourceGraphic" stdDeviation="1.5"/></filter><clipPath id="fcinsetclip-14" clipPathUnits="userSpaceOnUse"><rect x="24" y="443.34375" width="250" height="29.5" rx="14.75" ry="14.75" fill="#fff"/></clipPath><filter id="shadow-15" filterUnits="userSpaceOnUse" x="11.5" y="469.34375" width="275" height="54.5"><feGaussianBlur in="SourceGraphic" stdDeviation="1.5"/></filter><clipPath id="fcinsetclip-16" clipPathUnits="userSpaceOnUse"><rect x="24" y="480.84375" width="250" height="29.5" rx="14.75" ry="14.75" fill="#fff"/></clipPath><clipPath id="fcctl-18" clipPathUnits="userSpaceOnUse"><rect x="308" y="478.34" width="858" height="21"/></clipPath><clipPath id="fcctl-20" clipPathUnits="userSpaceOnUse"><rect x="308" y="564.34" width="858" height="21"/></clipPath><filter id="shadow-21" filterUnits="userSpaceOnUse" x="285.5" y="628.84375" width="140.296875" height="54.5"><feGaussianBlur in="SourceGraphic" stdDeviation="1.5"/></filter><clipPath id="fcinsetclip-22" clipPathUnits="userSpaceOnUse"><rect x="298" y="640.34375" width="115.296875" height="29.5" rx="14.75" ry="14.75" fill="#fff"/></clipPath><filter id="shadow-23" filterUnits="userSpaceOnUse" x="412.796875" y="628.84375" width="157.15625" height="54.5"><feGaussianBlur in="SourceGraphic" stdDeviation="1.5"/></filter><clipPath id="fcinsetclip-24" clipPathUnits="userSpaceOnUse"><rect x="425.296875" y="640.34375" width="132.15625" height="29.5" rx="14.75" ry="14.75" fill="#fff"/></clipPath><filter id="shadow-25" filterUnits="userSpaceOnUse" x="556.953125" y="628.84375" width="137.484375" height="54.5"><feGaussianBlur in="SourceGraphic" stdDeviation="1.5"/></filter><clipPath id="fcinsetclip-26" clipPathUnits="userSpaceOnUse"><rect x="569.453125" y="640.34375" width="112.484375" height="29.5" rx="14.75" ry="14.75" fill="#fff"/></clipPath><clipPath id="fcctl-28" clipPathUnits="userSpaceOnUse"><rect x="328" y="781.84" width="818" height="70"/></clipPath><filter id="shadow-29" filterUnits="userSpaceOnUse" x="305.5" y="856.34375" width="147.875" height="54.5"><feGaussianBlur in="SourceGraphic" stdDeviation="1.5"/></filter><clipPath id="fcinsetclip-30" clipPathUnits="userSpaceOnUse"><rect x="318" y="867.84375" width="122.875" height="29.5" rx="14.75" ry="14.75" fill="#fff"/></clipPath><filter id="shadow-31" filterUnits="userSpaceOnUse" x="440.375" y="856.34375" width="164.75" height="54.5"><feGaussianBlur in="SourceGraphic" stdDeviation="1.5"/></filter><clipPath id="fcinsetclip-32" clipPathUnits="userSpaceOnUse"><rect x="452.875" y="867.84375" width="139.75" height="29.5" rx="14.75" ry="14.75" fill="#fff"/></clipPath><filter id="shadow-33" filterUnits="userSpaceOnUse" x="592.125" y="856.34375" width="145.0625" height="54.5"><feGaussianBlur in="SourceGraphic" stdDeviation="1.5"/></filter><clipPath id="fcinsetclip-34" clipPathUnits="userSpaceOnUse"><rect x="604.625" y="867.84375" width="120.0625" height="29.5" rx="14.75" ry="14.75" fill="#fff"/></clipPath><clipPath id="fcctl-36" clipPathUnits="userSpaceOnUse"><rect x="328" y="1066.34" width="818" height="70"/></clipPath><filter id="shadow-37" filterUnits="userSpaceOnUse" x="305.5" y="1185.84375" width="147.875" height="54.5"><feGaussianBlur in="SourceGraphic" stdDeviation="1.5"/></filter><clipPath id="fcinsetclip-38" clipPathUnits="userSpaceOnUse"><rect x="318" y="1197.34375" width="122.875" height="29.5" rx="14.75" ry="14.75" fill="#fff"/></clipPath><filter id="shadow-39" filterUnits="userSpaceOnUse" x="440.375" y="1185.84375" width="164.75" height="54.5"><feGaussianBlur in="SourceGraphic" stdDeviation="1.5"/></filter><clipPath id="fcinsetclip-40" clipPathUnits="userSpaceOnUse"><rect x="452.875" y="1197.34375" width="139.75" height="29.5" rx="14.75" ry="14.75" fill="#fff"/></clipPath><filter id="shadow-41" filterUnits="userSpaceOnUse" x="592.125" y="1185.84375" width="145.0625" height="54.5"><feGaussianBlur in="SourceGraphic" stdDeviation="1.5"/></filter><clipPath id="fcinsetclip-42" clipPathUnits="userSpaceOnUse"><rect x="604.625" y="1197.34375" width="120.0625" height="29.5" rx="14.75" ry="14.75" fill="#fff"/></clipPath><clipPath id="fcctl-44" clipPathUnits="userSpaceOnUse"><rect x="328" y="1395.84" width="818" height="70"/></clipPath><filter id="shadow-45" filterUnits="userSpaceOnUse" x="305.5" y="1470.34375" width="147.875" height="54.5"><feGaussianBlur in="SourceGraphic" stdDeviation="1.5"/></filter><clipPath id="fcinsetclip-46" clipPathUnits="userSpaceOnUse"><rect x="318" y="1481.84375" width="122.875" height="29.5" rx="14.75" ry="14.75" fill="#fff"/></clipPath><filter id="shadow-47" filterUnits="userSpaceOnUse" x="440.375" y="1470.34375" width="164.75" height="54.5"><feGaussianBlur in="SourceGraphic" stdDeviation="1.5"/></filter><clipPath id="fcinsetclip-48" clipPathUnits="userSpaceOnUse"><rect x="452.875" y="1481.84375" width="139.75" height="29.5" rx="14.75" ry="14.75" fill="#fff"/></clipPath><filter id="shadow-49" filterUnits="userSpaceOnUse" x="592.125" y="1470.34375" width="145.0625" height="54.5"><feGaussianBlur in="SourceGraphic" stdDeviation="1.5"/></filter><clipPath id="fcinsetclip-50" clipPathUnits="userSpaceOnUse"><rect x="604.625" y="1481.84375" width="120.0625" height="29.5" rx="14.75" ry="14.75" fill="#fff"/></clipPath><filter id="shadow-51" filterUnits="userSpaceOnUse" x="285.5" y="1571.34375" width="101.203125" height="54.5"><feGaussianBlur in="SourceGraphic" stdDeviation="1.5"/></filter><clipPath id="fcinsetclip-52" clipPathUnits="userSpaceOnUse"><rect x="298" y="1582.84375" width="76.203125" height="29.5" rx="14.75" ry="14.75" fill="#fff"/></clipPath><filter id="shadow-53" filterUnits="userSpaceOnUse" x="373.703125" y="1571.34375" width="123.1875" height="54.5"><feGaussianBlur in="SourceGraphic" stdDeviation="1.5"/></filter><clipPath id="fcinsetclip-54" clipPathUnits="userSpaceOnUse"><rect x="386.203125" y="1582.84375" width="98.1875" height="29.5" rx="14.75" ry="14.75" fill="#fff"/></clipPath><filter id="shadow-55" filterUnits="userSpaceOnUse" x="483.890625" y="1547.84375" width="283" height="101.5"><feGaussianBlur in="SourceGraphic" stdDeviation="1.5"/></filter><clipPath id="fcinsetclip-56" clipPathUnits="userSpaceOnUse"><rect x="496.390625" y="1559.34375" width="258" height="76.5" rx="16" ry="16" fill="#fff"/></clipPath><clipPath id="fcctl-59" clipPathUnits="userSpaceOnUse"><rect x="54" y="1830.19" width="1092" height="20"/></clipPath><filter id="shadow-61" filterUnits="userSpaceOnUse" x="31.5" y="2126" width="152.9375" height="54.5"><feGaussianBlur in="SourceGraphic" stdDeviation="1.5"/></filter><clipPath id="fcinsetclip-62" clipPathUnits="userSpaceOnUse"><rect x="44" y="2137.5" width="127.9375" height="29.5" rx="14.75" ry="14.75" fill="#fff"/></clipPath><filter id="shadow-63" filterUnits="userSpaceOnUse" x="71.5" y="2247.8125" width="188.0625" height="54.5"><feGaussianBlur in="SourceGraphic" stdDeviation="1.5"/></filter><clipPath id="fcinsetclip-64" clipPathUnits="userSpaceOnUse"><rect x="84" y="2259.3125" width="163.0625" height="29.5" rx="14.75" ry="14.75" fill="#fff"/></clipPath><filter id="shadow-65" filterUnits="userSpaceOnUse" x="71.5" y="2298.3125" width="203.65625" height="54.5"><feGaussianBlur in="SourceGraphic" stdDeviation="1.5"/></filter><clipPath id="fcinsetclip-66" clipPathUnits="userSpaceOnUse"><rect x="84" y="2309.8125" width="178.65625" height="29.5" rx="14.75" ry="14.75" fill="#fff"/></clipPath><filter id="shadow-67" filterUnits="userSpaceOnUse" x="71.5" y="2348.8125" width="260.328125" height="54.5"><feGaussianBlur in="SourceGraphic" stdDeviation="1.5"/></filter><clipPath id="fcinsetclip-68" clipPathUnits="userSpaceOnUse"><rect x="84" y="2360.3125" width="235.328125" height="29.5" rx="14.75" ry="14.75" fill="#fff"/></clipPath></defs><g><g><g><g><rect x="24" y="50" width="73.265625" height="29.5" rx="14.75" ry="14.75" fill="rgba(0,0,0,0.13)" filter="url(#shadow-1)"/><rect x="24" y="49" width="73.265625" height="29.5" rx="14.75" ry="14.75" fill="rgb(255,255,255)"/><path d="M15 40H106.27V87.5H15ZM38.75,50 H82.516 A14.75,14.75 0 0 1 97.266,64.75 V64.75 A14.75,14.75 0 0 1 82.516,79.5 H38.75 A14.75,14.75 0 0 1 24,64.75 V64.75 A14.75,14.75 0 0 1 38.75,50 Z" fill-rule="evenodd" fill="rgb(255,255,255)" fill-opacity="0.1" clip-path="url(#fcinsetclip-2)"/><text x="38" y="55" dominant-baseline="text-before-edge" font-size="13px" font-weight="400" font-style="normal" font-family="SUSE, ui-sans-serif, system-ui, sans-serif" fill="rgb(3,7,17)">Projects</text></g><g><text x="109.27" y="45.75" dominant-baseline="text-before-edge" font-size="28px" font-weight="700" font-style="normal" font-family="SUSE, ui-sans-serif, system-ui, sans-serif" fill="rgb(3,7,17)">Learning module</text></g><g><rect x="1071.9375" y="50" width="104.0625" height="29.5" rx="14.75" ry="14.75" fill="rgba(0,0,0,0.13)" filter="url(#shadow-3)"/><rect x="1071.9375" y="49" width="104.0625" height="29.5" rx="14.75" ry="14.75" fill="rgb(255,255,255)"/><path d="M1062.94 40H1185V87.5H1062.94ZM1086.688,50 H1161.25 A14.75,14.75 0 0 1 1176,64.75 V64.75 A14.75,14.75 0 0 1 1161.25,79.5 H1086.688 A14.75,14.75 0 0 1 1071.938,64.75 V64.75 A14.75,14.75 0 0 1 1086.688,50 Z" fill-rule="evenodd" fill="rgb(255,255,255)" fill-opacity="0.1" clip-path="url(#fcinsetclip-4)"/><text x="1085.94" y="55" dominant-baseline="text-before-edge" font-size="13px" font-weight="400" font-style="normal" font-family="SUSE, ui-sans-serif, system-ui, sans-serif" fill="rgb(3,7,17)">Creator guide</text></g></g><g><g><text x="24" y="116.5" dominant-baseline="text-before-edge" font-size="14px" font-weight="400" font-style="normal" font-family="SUSE, ui-sans-serif, system-ui, sans-serif" fill="rgb(3,7,17)">Course title</text></g><g><rect x="24" y="148.5" width="1152" height="41" rx="6" ry="6" fill="rgb(255,255,255)"/><g clip-path="url(#fcctl-6)"><text x="34" y="159.5" dominant-baseline="text-before-edge" font-size="14px" font-weight="400" font-style="normal" font-family="SUSE, ui-sans-serif, system-ui, sans-serif" fill="rgb(3,7,17)">Linux onboarding</text></g></g></g><g><text x="24" y="204.5" dominant-baseline="text-before-edge" font-size="14px" font-weight="400" font-style="normal" font-family="SUSE, ui-sans-serif, system-ui, sans-serif" fill="rgb(3,7,17)">Saved on this device</text></g><g><g><rect x="24" y="239.5" width="84.453125" height="29.5" rx="14.75" ry="14.75" fill="rgba(0,0,0,0.13)" filter="url(#shadow-7)"/><rect x="24" y="238.5" width="84.453125" height="29.5" rx="14.75" ry="14.75" fill="rgb(255,255,255)"/><path d="M15 229.5H117.45V277H15ZM38.75,239.5 H93.703 A14.75,14.75 0 0 1 108.453,254.25 V254.25 A14.75,14.75 0 0 1 93.703,269 H38.75 A14.75,14.75 0 0 1 24,254.25 V254.25 A14.75,14.75 0 0 1 38.75,239.5 Z" fill-rule="evenodd" fill="rgb(255,255,255)" fill-opacity="0.1" clip-path="url(#fcinsetclip-8)"/><text x="38" y="244.5" dominant-baseline="text-before-edge" font-size="13px" font-weight="400" font-style="normal" font-family="SUSE, ui-sans-serif, system-ui, sans-serif" fill="rgb(3,7,17)">Undo edit</text></g><g><rect x="120.453125" y="239.5" width="85.40625" height="29.5" rx="14.75" ry="14.75" fill="rgba(0,0,0,0.13)" filter="url(#shadow-9)"/><rect x="120.453125" y="238.5" width="85.40625" height="29.5" rx="14.75" ry="14.75" fill="rgb(255,255,255)"/><path d="M111.45 229.5H214.86V277H111.45ZM135.203,239.5 H191.109 A14.75,14.75 0 0 1 205.859,254.25 V254.25 A14.75,14.75 0 0 1 191.109,269 H135.203 A14.75,14.75 0 0 1 120.453,254.25 V254.25 A14.75,14.75 0 0 1 135.203,239.5 Z" fill-rule="evenodd" fill="rgb(255,255,255)" fill-opacity="0.1" clip-path="url(#fcinsetclip-10)"/><text x="134.45" y="244.5" dominant-baseline="text-before-edge" font-size="13px" font-weight="400" font-style="normal" font-family="SUSE, ui-sans-serif, system-ui, sans-serif" fill="rgb(3,7,17)">Retry save</text></g><g><rect x="217.859375" y="239.5" width="129.75" height="29.5" rx="14.75" ry="14.75" fill="rgba(0,0,0,0.13)" filter="url(#shadow-11)"/><rect x="217.859375" y="238.5" width="129.75" height="29.5" rx="14.75" ry="14.75" fill="rgb(255,255,255)"/><path d="M208.86 229.5H356.61V277H208.86ZM232.609,239.5 H332.859 A14.75,14.75 0 0 1 347.609,254.25 V254.25 A14.75,14.75 0 0 1 332.859,269 H232.609 A14.75,14.75 0 0 1 217.859,254.25 V254.25 A14.75,14.75 0 0 1 232.609,239.5 Z" fill-rule="evenodd" fill="rgb(255,255,255)" fill-opacity="0.1" clip-path="url(#fcinsetclip-12)"/><text x="231.86" y="244.5" dominant-baseline="text-before-edge" font-size="13px" font-weight="400" font-style="normal" font-family="SUSE, ui-sans-serif, system-ui, sans-serif" fill="rgb(3,7,17)">Preview as learner</text></g></g><g><g><text x="58.83" y="305" dominant-baseline="text-before-edge" font-size="14px" font-weight="400" font-style="normal" font-family="SUSE, ui-sans-serif, system-ui, sans-serif" fill="rgb(3,7,17)">Module details</text></g></g><g><g><g><text x="24" y="388.42" dominant-baseline="text-before-edge" font-size="21px" font-weight="700" font-style="normal" font-family="SUSE, ui-sans-serif, system-ui, sans-serif" fill="rgb(3,7,17)">Lessons</text></g><g><rect x="24" y="444.34375" width="250" height="29.5" rx="14.75" ry="14.75" fill="rgba(0,0,0,0.13)" filter="url(#shadow-13)"/><rect x="24" y="443.34375" width="250" height="29.5" rx="14.75" ry="14.75" fill="rgb(255,255,255)"/><path d="M15 434.34H283V481.84H15ZM38.75,444.344 H259.25 A14.75,14.75 0 0 1 274,459.094 V459.094 A14.75,14.75 0 0 1 259.25,473.844 H38.75 A14.75,14.75 0 0 1 24,459.094 V459.094 A14.75,14.75 0 0 1 38.75,444.344 Z" fill-rule="evenodd" fill="rgb(255,255,255)" fill-opacity="0.1" clip-path="url(#fcinsetclip-14)"/><text x="38" y="449.34" dominant-baseline="text-before-edge" font-size="13px" font-weight="400" font-style="normal" font-family="SUSE, ui-sans-serif, system-ui, sans-serif" fill="rgb(3,7,17)">Add lesson</text></g><g><rect x="24" y="481.84375" width="250" height="29.5" rx="14.75" ry="14.75" fill="rgba(0,0,0,0.13)" filter="url(#shadow-15)"/><rect x="24" y="480.84375" width="250" height="29.5" rx="14.75" ry="14.75" fill="rgb(255,255,255)"/><path d="M15 471.84H283V519.34H15ZM38.75,481.844 H259.25 A14.75,14.75 0 0 1 274,496.594 V496.594 A14.75,14.75 0 0 1 259.25,511.344 H38.75 A14.75,14.75 0 0 1 24,496.594 V496.594 A14.75,14.75 0 0 1 38.75,481.844 Z" fill-rule="evenodd" fill="rgb(255,255,255)" fill-opacity="0.1" clip-path="url(#fcinsetclip-16)"/><text x="38" y="486.84" dominant-baseline="text-before-edge" font-size="13px" font-weight="400" font-style="normal" font-family="SUSE, ui-sans-serif, system-ui, sans-serif" fill="rgb(3,7,17)">1. Prepare your environment</text></g></g><g><g><text x="298" y="388.42" dominant-baseline="text-before-edge" font-size="21px" font-weight="700" font-style="normal" font-family="SUSE, ui-sans-serif, system-ui, sans-serif" fill="rgb(3,7,17)">Edit lesson</text></g><g><g><text x="298" y="436.34" dominant-baseline="text-before-edge" font-size="14px" font-weight="400" font-style="normal" font-family="SUSE, ui-sans-serif, system-ui, sans-serif" fill="rgb(3,7,17)">Lesson title</text></g><g><rect x="298" y="468.34375" width="878" height="41" rx="6" ry="6" fill="rgb(255,255,255)"/><g clip-path="url(#fcctl-18)"><text x="308" y="479.34" dominant-baseline="text-before-edge" font-size="14px" font-weight="400" font-style="normal" font-family="SUSE, ui-sans-serif, system-ui, sans-serif" fill="rgb(3,7,17)">Prepare your environment</text></g></g></g><g><g><text x="298" y="522.34" dominant-baseline="text-before-edge" font-size="14px" font-weight="400" font-style="normal" font-family="SUSE, ui-sans-serif, system-ui, sans-serif" fill="rgb(3,7,17)">Section (optional)</text></g><g><rect x="298" y="554.34375" width="878" height="41" rx="6" ry="6" fill="rgb(255,255,255)"/><g clip-path="url(#fcctl-20)"><text x="308" y="565.34" dominant-baseline="text-before-edge" font-size="14px" font-weight="400" font-style="normal" font-family="SUSE, ui-sans-serif, system-ui, sans-serif" fill="rgb(3,7,17)">Getting started</text></g></g></g><g><g><rect x="302" y="610.34" width="13" height="15" rx="2" ry="2" fill="rgb(29,29,29)"/><path d="M304.86 618.14L307.46 621.14L312.14 614.84" fill="none" stroke="#fff" stroke-width="1.82" stroke-linecap="round" stroke-linejoin="round"/></g><text x="324" y="608.34" dominant-baseline="text-before-edge" font-size="14px" font-weight="400" font-style="normal" font-family="SUSE, ui-sans-serif, system-ui, sans-serif" fill="rgb(3,7,17)">Required for completion</text></g><g><g><rect x="298" y="641.34375" width="115.296875" height="29.5" rx="14.75" ry="14.75" fill="rgba(0,0,0,0.13)" filter="url(#shadow-21)"/><rect x="298" y="640.34375" width="115.296875" height="29.5" rx="14.75" ry="14.75" fill="rgb(255,255,255)"/><path d="M289 631.34H422.3V678.84H289ZM312.75,641.344 H398.547 A14.75,14.75 0 0 1 413.297,656.094 V656.094 A14.75,14.75 0 0 1 398.547,670.844 H312.75 A14.75,14.75 0 0 1 298,656.094 V656.094 A14.75,14.75 0 0 1 312.75,641.344 Z" fill-rule="evenodd" fill="rgb(255,255,255)" fill-opacity="0.1" clip-path="url(#fcinsetclip-22)"/><text x="312" y="646.34" dominant-baseline="text-before-edge" font-size="13px" font-weight="400" font-style="normal" font-family="SUSE, ui-sans-serif, system-ui, sans-serif" fill="rgb(3,7,17)">Move lesson up</text></g><g><rect x="425.296875" y="641.34375" width="132.15625" height="29.5" rx="14.75" ry="14.75" fill="rgba(0,0,0,0.13)" filter="url(#shadow-23)"/><rect x="425.296875" y="640.34375" width="132.15625" height="29.5" rx="14.75" ry="14.75" fill="rgb(255,255,255)"/><path d="M416.3 631.34H566.45V678.84H416.3ZM440.047,641.344 H542.703 A14.75,14.75 0 0 1 557.453,656.094 V656.094 A14.75,14.75 0 0 1 542.703,670.844 H440.047 A14.75,14.75 0 0 1 425.297,656.094 V656.094 A14.75,14.75 0 0 1 440.047,641.344 Z" fill-rule="evenodd" fill="rgb(255,255,255)" fill-opacity="0.1" clip-path="url(#fcinsetclip-24)"/><text x="439.3" y="646.34" dominant-baseline="text-before-edge" font-size="13px" font-weight="400" font-style="normal" font-family="SUSE, ui-sans-serif, system-ui, sans-serif" fill="rgb(3,7,17)">Move lesson down</text></g><g><rect x="569.453125" y="641.34375" width="112.484375" height="29.5" rx="14.75" ry="14.75" fill="rgba(0,0,0,0.13)" filter="url(#shadow-25)"/><rect x="569.453125" y="640.34375" width="112.484375" height="29.5" rx="14.75" ry="14.75" fill="rgb(255,255,255)"/><path d="M560.45 631.34H690.94V678.84H560.45ZM584.203,641.344 H667.188 A14.75,14.75 0 0 1 681.938,656.094 V656.094 A14.75,14.75 0 0 1 667.188,670.844 H584.203 A14.75,14.75 0 0 1 569.453,656.094 V656.094 A14.75,14.75 0 0 1 584.203,641.344 Z" fill-rule="evenodd" fill="rgb(255,255,255)" fill-opacity="0.1" clip-path="url(#fcinsetclip-26)"/><text x="583.45" y="646.34" dominant-baseline="text-before-edge" font-size="13px" font-weight="400" font-style="normal" font-family="SUSE, ui-sans-serif, system-ui, sans-serif" fill="rgb(3,7,17)">Remove lesson</text></g></g><g><g><text x="320" y="686.84" dominant-baseline="text-before-edge" font-size="14px" font-weight="400" font-style="normal" font-family="SUSE, ui-sans-serif, system-ui, sans-serif" fill="rgb(3,7,17)">1. text</text></g><g><g><text x="318" y="739.84" dominant-baseline="text-before-edge" font-size="14px" font-weight="400" font-style="normal" font-family="SUSE, ui-sans-serif, system-ui, sans-serif" fill="rgb(3,7,17)">Lesson text</text></g><g><rect x="318" y="771.84375" width="838" height="90" rx="6" ry="6" fill="rgb(255,255,255)"/><g clip-path="url(#fcctl-28)"><text x="328" y="782.84" dominant-baseline="text-before-edge" font-size="14px" font-weight="400" font-style="normal" font-family="SUSE, ui-sans-serif, system-ui, sans-serif" fill="rgb(3,7,17)">Open a terminal and run uname. Read the system name before continuing.</text></g></g></g><g><g><rect x="318" y="868.84375" width="122.875" height="29.5" rx="14.75" ry="14.75" fill="rgba(0,0,0,0.13)" filter="url(#shadow-29)"/><rect x="318" y="867.84375" width="122.875" height="29.5" rx="14.75" ry="14.75" fill="rgb(255,255,255)"/><path d="M309 858.84H449.88V906.34H309ZM332.75,868.844 H426.125 A14.75,14.75 0 0 1 440.875,883.594 V883.594 A14.75,14.75 0 0 1 426.125,898.344 H332.75 A14.75,14.75 0 0 1 318,883.594 V883.594 A14.75,14.75 0 0 1 332.75,868.844 Z" fill-rule="evenodd" fill="rgb(255,255,255)" fill-opacity="0.1" clip-path="url(#fcinsetclip-30)"/><text x="332" y="873.84" dominant-baseline="text-before-edge" font-size="13px" font-weight="400" font-style="normal" font-family="SUSE, ui-sans-serif, system-ui, sans-serif" fill="rgb(3,7,17)">Move content up</text></g><g><rect x="452.875" y="868.84375" width="139.75" height="29.5" rx="14.75" ry="14.75" fill="rgba(0,0,0,0.13)" filter="url(#shadow-31)"/><rect x="452.875" y="867.84375" width="139.75" height="29.5" rx="14.75" ry="14.75" fill="rgb(255,255,255)"/><path d="M443.88 858.84H601.63V906.34H443.88ZM467.625,868.844 H577.875 A14.75,14.75 0 0 1 592.625,883.594 V883.594 A14.75,14.75 0 0 1 577.875,898.344 H467.625 A14.75,14.75 0 0 1 452.875,883.594 V883.594 A14.75,14.75 0 0 1 467.625,868.844 Z" fill-rule="evenodd" fill="rgb(255,255,255)" fill-opacity="0.1" clip-path="url(#fcinsetclip-32)"/><text x="466.88" y="873.84" dominant-baseline="text-before-edge" font-size="13px" font-weight="400" font-style="normal" font-family="SUSE, ui-sans-serif, system-ui, sans-serif" fill="rgb(3,7,17)">Move content down</text></g><g><rect x="604.625" y="868.84375" width="120.0625" height="29.5" rx="14.75" ry="14.75" fill="rgba(0,0,0,0.13)" filter="url(#shadow-33)"/><rect x="604.625" y="867.84375" width="120.0625" height="29.5" rx="14.75" ry="14.75" fill="rgb(255,255,255)"/><path d="M595.63 858.84H733.69V906.34H595.63ZM619.375,868.844 H709.938 A14.75,14.75 0 0 1 724.688,883.594 V883.594 A14.75,14.75 0 0 1 709.938,898.344 H619.375 A14.75,14.75 0 0 1 604.625,883.594 V883.594 A14.75,14.75 0 0 1 619.375,868.844 Z" fill-rule="evenodd" fill="rgb(255,255,255)" fill-opacity="0.1" clip-path="url(#fcinsetclip-34)"/><text x="618.63" y="873.84" dominant-baseline="text-before-edge" font-size="13px" font-weight="400" font-style="normal" font-family="SUSE, ui-sans-serif, system-ui, sans-serif" fill="rgb(3,7,17)">Remove content</text></g></g></g><g><g><text x="320" y="934.34" dominant-baseline="text-before-edge" font-size="14px" font-weight="400" font-style="normal" font-family="SUSE, ui-sans-serif, system-ui, sans-serif" fill="rgb(3,7,17)">2. image</text></g><g><text x="318" y="989.34" dominant-baseline="text-before-edge" font-size="14px" font-weight="400" font-style="normal" font-family="SUSE, ui-sans-serif, system-ui, sans-serif" fill="rgb(3,7,17)">terminal.png</text></g><g><g><text x="318" y="1024.34" dominant-baseline="text-before-edge" font-size="14px" font-weight="400" font-style="normal" font-family="SUSE, ui-sans-serif, system-ui, sans-serif" fill="rgb(3,7,17)">Description or equivalent explanation</text></g><g><rect x="318" y="1056.34375" width="838" height="90" rx="6" ry="6" fill="rgb(255,255,255)"/><g clip-path="url(#fcctl-36)"><text x="328" y="1067.34" dominant-baseline="text-before-edge" font-size="14px" font-weight="400" font-style="normal" font-family="SUSE, ui-sans-serif, system-ui, sans-serif" fill="rgb(3,7,17)">A terminal window. Use the written instructions above to complete this step.</text></g></g></g><g><g><rect x="322" y="1167.34" width="13" height="15" rx="2" ry="2" fill="#fff" stroke="#767676" stroke-width="1"/></g><text x="344" y="1165.34" dominant-baseline="text-before-edge" font-size="14px" font-weight="400" font-style="normal" font-family="SUSE, ui-sans-serif, system-ui, sans-serif" fill="rgb(3,7,17)">Decorative image</text></g><g><g><rect x="318" y="1198.34375" width="122.875" height="29.5" rx="14.75" ry="14.75" fill="rgba(0,0,0,0.13)" filter="url(#shadow-37)"/><rect x="318" y="1197.34375" width="122.875" height="29.5" rx="14.75" ry="14.75" fill="rgb(255,255,255)"/><path d="M309 1188.34H449.88V1235.84H309ZM332.75,1198.344 H426.125 A14.75,14.75 0 0 1 440.875,1213.094 V1213.094 A14.75,14.75 0 0 1 426.125,1227.844 H332.75 A14.75,14.75 0 0 1 318,1213.094 V1213.094 A14.75,14.75 0 0 1 332.75,1198.344 Z" fill-rule="evenodd" fill="rgb(255,255,255)" fill-opacity="0.1" clip-path="url(#fcinsetclip-38)"/><text x="332" y="1203.34" dominant-baseline="text-before-edge" font-size="13px" font-weight="400" font-style="normal" font-family="SUSE, ui-sans-serif, system-ui, sans-serif" fill="rgb(3,7,17)">Move content up</text></g><g><rect x="452.875" y="1198.34375" width="139.75" height="29.5" rx="14.75" ry="14.75" fill="rgba(0,0,0,0.13)" filter="url(#shadow-39)"/><rect x="452.875" y="1197.34375" width="139.75" height="29.5" rx="14.75" ry="14.75" fill="rgb(255,255,255)"/><path d="M443.88 1188.34H601.63V1235.84H443.88ZM467.625,1198.344 H577.875 A14.75,14.75 0 0 1 592.625,1213.094 V1213.094 A14.75,14.75 0 0 1 577.875,1227.844 H467.625 A14.75,14.75 0 0 1 452.875,1213.094 V1213.094 A14.75,14.75 0 0 1 467.625,1198.344 Z" fill-rule="evenodd" fill="rgb(255,255,255)" fill-opacity="0.1" clip-path="url(#fcinsetclip-40)"/><text x="466.88" y="1203.34" dominant-baseline="text-before-edge" font-size="13px" font-weight="400" font-style="normal" font-family="SUSE, ui-sans-serif, system-ui, sans-serif" fill="rgb(3,7,17)">Move content down</text></g><g><rect x="604.625" y="1198.34375" width="120.0625" height="29.5" rx="14.75" ry="14.75" fill="rgba(0,0,0,0.13)" filter="url(#shadow-41)"/><rect x="604.625" y="1197.34375" width="120.0625" height="29.5" rx="14.75" ry="14.75" fill="rgb(255,255,255)"/><path d="M595.63 1188.34H733.69V1235.84H595.63ZM619.375,1198.344 H709.938 A14.75,14.75 0 0 1 724.688,1213.094 V1213.094 A14.75,14.75 0 0 1 709.938,1227.844 H619.375 A14.75,14.75 0 0 1 604.625,1213.094 V1213.094 A14.75,14.75 0 0 1 619.375,1198.344 Z" fill-rule="evenodd" fill="rgb(255,255,255)" fill-opacity="0.1" clip-path="url(#fcinsetclip-42)"/><text x="618.63" y="1203.34" dominant-baseline="text-before-edge" font-size="13px" font-weight="400" font-style="normal" font-family="SUSE, ui-sans-serif, system-ui, sans-serif" fill="rgb(3,7,17)">Remove content</text></g></g></g><g><g><text x="320" y="1263.84" dominant-baseline="text-before-edge" font-size="14px" font-weight="400" font-style="normal" font-family="SUSE, ui-sans-serif, system-ui, sans-serif" fill="rgb(3,7,17)">3. resource</text></g><g><text x="318" y="1318.84" dominant-baseline="text-before-edge" font-size="14px" font-weight="400" font-style="normal" font-family="SUSE, ui-sans-serif, system-ui, sans-serif" fill="rgb(3,7,17)">user/learning-resource/b3f14689-25df-4eb8-994e-0c6a29b0ad08</text></g><g><g><text x="318" y="1353.84" dominant-baseline="text-before-edge" font-size="14px" font-weight="400" font-style="normal" font-family="SUSE, ui-sans-serif, system-ui, sans-serif" fill="rgb(3,7,17)">Description or equivalent explanation</text></g><g><rect x="318" y="1385.84375" width="838" height="90" rx="6" ry="6" fill="rgb(255,255,255)"/><g clip-path="url(#fcctl-44)"><text x="328" y="1396.84" dominant-baseline="text-before-edge" font-size="14px" font-weight="400" font-style="normal" font-family="SUSE, ui-sans-serif, system-ui, sans-serif" fill="rgb(3,7,17)">commands.txt</text></g></g></g><g><g><rect x="318" y="1482.84375" width="122.875" height="29.5" rx="14.75" ry="14.75" fill="rgba(0,0,0,0.13)" filter="url(#shadow-45)"/><rect x="318" y="1481.84375" width="122.875" height="29.5" rx="14.75" ry="14.75" fill="rgb(255,255,255)"/><path d="M309 1472.84H449.88V1520.34H309ZM332.75,1482.844 H426.125 A14.75,14.75 0 0 1 440.875,1497.594 V1497.594 A14.75,14.75 0 0 1 426.125,1512.344 H332.75 A14.75,14.75 0 0 1 318,1497.594 V1497.594 A14.75,14.75 0 0 1 332.75,1482.844 Z" fill-rule="evenodd" fill="rgb(255,255,255)" fill-opacity="0.1" clip-path="url(#fcinsetclip-46)"/><text x="332" y="1487.84" dominant-baseline="text-before-edge" font-size="13px" font-weight="400" font-style="normal" font-family="SUSE, ui-sans-serif, system-ui, sans-serif" fill="rgb(3,7,17)">Move content up</text></g><g><rect x="452.875" y="1482.84375" width="139.75" height="29.5" rx="14.75" ry="14.75" fill="rgba(0,0,0,0.13)" filter="url(#shadow-47)"/><rect x="452.875" y="1481.84375" width="139.75" height="29.5" rx="14.75" ry="14.75" fill="rgb(255,255,255)"/><path d="M443.88 1472.84H601.63V1520.34H443.88ZM467.625,1482.844 H577.875 A14.75,14.75 0 0 1 592.625,1497.594 V1497.594 A14.75,14.75 0 0 1 577.875,1512.344 H467.625 A14.75,14.75 0 0 1 452.875,1497.594 V1497.594 A14.75,14.75 0 0 1 467.625,1482.844 Z" fill-rule="evenodd" fill="rgb(255,255,255)" fill-opacity="0.1" clip-path="url(#fcinsetclip-48)"/><text x="466.88" y="1487.84" dominant-baseline="text-before-edge" font-size="13px" font-weight="400" font-style="normal" font-family="SUSE, ui-sans-serif, system-ui, sans-serif" fill="rgb(3,7,17)">Move content down</text></g><g><rect x="604.625" y="1482.84375" width="120.0625" height="29.5" rx="14.75" ry="14.75" fill="rgba(0,0,0,0.13)" filter="url(#shadow-49)"/><rect x="604.625" y="1481.84375" width="120.0625" height="29.5" rx="14.75" ry="14.75" fill="rgb(255,255,255)"/><path d="M595.63 1472.84H733.69V1520.34H595.63ZM619.375,1482.844 H709.938 A14.75,14.75 0 0 1 724.688,1497.594 V1497.594 A14.75,14.75 0 0 1 709.938,1512.344 H619.375 A14.75,14.75 0 0 1 604.625,1497.594 V1497.594 A14.75,14.75 0 0 1 619.375,1482.844 Z" fill-rule="evenodd" fill="rgb(255,255,255)" fill-opacity="0.1" clip-path="url(#fcinsetclip-50)"/><text x="618.63" y="1487.84" dominant-baseline="text-before-edge" font-size="13px" font-weight="400" font-style="normal" font-family="SUSE, ui-sans-serif, system-ui, sans-serif" fill="rgb(3,7,17)">Remove content</text></g></g></g><g><g><rect x="298" y="1583.84375" width="76.203125" height="29.5" rx="14.75" ry="14.75" fill="rgba(0,0,0,0.13)" filter="url(#shadow-51)"/><rect x="298" y="1582.84375" width="76.203125" height="29.5" rx="14.75" ry="14.75" fill="rgb(255,255,255)"/><path d="M289 1573.84H383.2V1621.34H289ZM312.75,1583.844 H359.453 A14.75,14.75 0 0 1 374.203,1598.594 V1598.594 A14.75,14.75 0 0 1 359.453,1613.344 H312.75 A14.75,14.75 0 0 1 298,1598.594 V1598.594 A14.75,14.75 0 0 1 312.75,1583.844 Z" fill-rule="evenodd" fill="rgb(255,255,255)" fill-opacity="0.1" clip-path="url(#fcinsetclip-52)"/><text x="312" y="1588.84" dominant-baseline="text-before-edge" font-size="13px" font-weight="400" font-style="normal" font-family="SUSE, ui-sans-serif, system-ui, sans-serif" fill="rgb(3,7,17)">Add text</text></g><g><rect x="386.203125" y="1583.84375" width="98.1875" height="29.5" rx="14.75" ry="14.75" fill="rgba(0,0,0,0.13)" filter="url(#shadow-53)"/><rect x="386.203125" y="1582.84375" width="98.1875" height="29.5" rx="14.75" ry="14.75" fill="rgb(255,255,255)"/><path d="M377.2 1573.84H493.39V1621.34H377.2ZM400.953,1583.844 H469.641 A14.75,14.75 0 0 1 484.391,1598.594 V1598.594 A14.75,14.75 0 0 1 469.641,1613.344 H400.953 A14.75,14.75 0 0 1 386.203,1598.594 V1598.594 A14.75,14.75 0 0 1 400.953,1583.844 Z" fill-rule="evenodd" fill="rgb(255,255,255)" fill-opacity="0.1" clip-path="url(#fcinsetclip-54)"/><text x="400.2" y="1588.84" dominant-baseline="text-before-edge" font-size="13px" font-weight="400" font-style="normal" font-family="SUSE, ui-sans-serif, system-ui, sans-serif" fill="rgb(3,7,17)">Add content</text></g><g><rect x="496.390625" y="1560.34375" width="258" height="76.5" rx="16" ry="16" fill="rgba(0,0,0,0.13)" filter="url(#shadow-55)"/><rect x="496.390625" y="1559.34375" width="258" height="76.5" rx="16" ry="16" fill="rgb(255,255,255)"/><path d="M487.39 1550.34H763.39V1644.84H487.39ZM512.391,1560.344 H738.391 A16,16 0 0 1 754.391,1576.344 V1620.844 A16,16 0 0 1 738.391,1636.844 H512.391 A16,16 0 0 1 496.391,1620.844 V1576.344 A16,16 0 0 1 512.391,1560.344 Z" fill-rule="evenodd" fill="rgb(255,255,255)" fill-opacity="0.1" clip-path="url(#fcinsetclip-56)"/><g><rect x="510.390625" y="1589.84375" width="230" height="41" rx="6" ry="6" fill="rgb(255,255,255)"/></g><text x="510.39" y="1565.34" dominant-baseline="text-before-edge" font-size="13px" font-weight="400" font-style="normal" font-family="SUSE, ui-sans-serif, system-ui, sans-serif" fill="rgb(3,7,17)">Add resource</text></g></g></g></g><g><g><text x="44" y="1711.27" dominant-baseline="text-before-edge" font-size="21px" font-weight="700" font-style="normal" font-family="SUSE, ui-sans-serif, system-ui, sans-serif" fill="rgb(3,7,17)">Publish a package</text></g><g><text x="44" y="1759.19" dominant-baseline="text-before-edge" font-size="14px" font-weight="400" font-style="normal" font-family="SUSE, ui-sans-serif, system-ui, sans-serif" fill="rgb(3,7,17)">Download a portable package for your customer LMS. Start with SCORM 1.2 for SUSE Litmos and partner testing.</text></g><g><g><rect x="44" y="1820.1875" width="1112" height="40" rx="6" ry="6" fill="rgb(255,255,255)"/><g clip-path="url(#fcctl-59)"><text x="54" y="1831.19" dominant-baseline="text-before-edge" font-size="14px" font-weight="400" font-style="normal" font-family="SUSE, ui-sans-serif, system-ui, sans-serif" fill="rgb(3,7,17)">SCORM 1.2 (Litmos and partner starting point)</text></g></g><text x="44" y="1794.19" dominant-baseline="text-before-edge" font-size="14px" font-weight="400" font-style="normal" font-family="SUSE, ui-sans-serif, system-ui, sans-serif" fill="rgb(3,7,17)">Package format</text></g><g><text x="44" y="1875.19" dominant-baseline="text-before-edge" font-size="14px" font-weight="400" font-style="normal" font-family="SUSE, ui-sans-serif, system-ui, sans-serif" fill="rgb(3,7,17)">Compatibility has not yet been verified in SUSE Litmos or partner tenants. Test import, completion and resume before assigning learners. xAPI formats require credentials supplied by</text><text x="44" y="1896.19" dominant-baseline="text-before-edge" font-size="14px" font-weight="400" font-style="normal" font-family="SUSE, ui-sans-serif, system-ui, sans-serif" fill="rgb(3,7,17)">the learner's LMS launch.</text></g><g><text x="44" y="1933.56" dominant-baseline="text-before-edge" font-size="16.38px" font-weight="700" font-style="normal" font-family="SUSE, ui-sans-serif, system-ui, sans-serif" fill="rgb(3,7,17)">Checks</text></g><g><text x="44" y="1974.5" dominant-baseline="text-before-edge" font-size="14px" font-weight="400" font-style="normal" font-family="SUSE, ui-sans-serif, system-ui, sans-serif" fill="rgb(3,7,17)">The module structure is ready. Preview the content and review its accessibility before publishing.</text></g><g><g><text x="44" y="2009.5" dominant-baseline="text-before-edge" font-size="14px" font-weight="400" font-style="normal" font-family="SUSE, ui-sans-serif, system-ui, sans-serif" fill="rgb(3,7,17)">Version notes</text></g><g><rect x="44" y="2041.5" width="1112" height="90" rx="6" ry="6" fill="rgb(255,255,255)"/></g></g><g><rect x="44" y="2138.5" width="127.9375" height="29.5" rx="14.75" ry="14.75" fill="rgba(0,0,0,0.13)" filter="url(#shadow-61)"/><rect x="44" y="2137.5" width="127.9375" height="29.5" rx="14.75" ry="14.75" fill="rgb(255,255,255)"/><path d="M35 2128.5H180.94V2176H35ZM58.75,2138.5 H157.188 A14.75,14.75 0 0 1 171.938,2153.25 V2153.25 A14.75,14.75 0 0 1 157.188,2168 H58.75 A14.75,14.75 0 0 1 44,2153.25 V2153.25 A14.75,14.75 0 0 1 58.75,2138.5 Z" fill-rule="evenodd" fill="rgb(255,255,255)" fill-opacity="0.1" clip-path="url(#fcinsetclip-62)"/><text x="58" y="2143.5" dominant-baseline="text-before-edge" font-size="13px" font-weight="400" font-style="normal" font-family="SUSE, ui-sans-serif, system-ui, sans-serif" fill="rgb(3,7,17)">Build new version</text></g><g><text x="44" y="2184.38" dominant-baseline="text-before-edge" font-size="16.38px" font-weight="700" font-style="normal" font-family="SUSE, ui-sans-serif, system-ui, sans-serif" fill="rgb(3,7,17)">Saved versions</text></g><g><g><g><rect x="84" y="2260.3125" width="163.0625" height="29.5" rx="14.75" ry="14.75" fill="rgba(0,0,0,0.13)" filter="url(#shadow-63)"/><rect x="84" y="2259.3125" width="163.0625" height="29.5" rx="14.75" ry="14.75" fill="rgb(255,255,255)"/><path d="M75 2250.31H256.06V2297.81H75ZM98.75,2260.313 H232.313 A14.75,14.75 0 0 1 247.063,2275.063 V2275.063 A14.75,14.75 0 0 1 232.313,2289.813 H98.75 A14.75,14.75 0 0 1 84,2275.063 V2275.063 A14.75,14.75 0 0 1 98.75,2260.313 Z" fill-rule="evenodd" fill="rgb(255,255,255)" fill-opacity="0.1" clip-path="url(#fcinsetclip-64)"/><text x="98" y="2265.31" dominant-baseline="text-before-edge" font-size="13px" font-weight="400" font-style="normal" font-family="SUSE, ui-sans-serif, system-ui, sans-serif" fill="rgb(3,7,17)">Download scorm12 ZIP</text></g><g><g><text x="98.83" y="2289.81" dominant-baseline="text-before-edge" font-size="14px" font-weight="400" font-style="normal" font-family="SUSE, ui-sans-serif, system-ui, sans-serif" fill="rgb(3,7,17)">scorm12 checksum</text></g><text x="84" y="2311.81" dominant-baseline="text-before-edge" font-size="14px" font-weight="400" font-style="normal" font-family="monospace" fill="rgb(3,7,17)">8841ae3c5503803da02883e030bbdaf5b6174cd1af3224de36c84c077f647cd0</text></g><g><rect x="84" y="2310.8125" width="178.65625" height="29.5" rx="14.75" ry="14.75" fill="rgba(0,0,0,0.13)" filter="url(#shadow-65)"/><rect x="84" y="2309.8125" width="178.65625" height="29.5" rx="14.75" ry="14.75" fill="rgb(255,255,255)"/><path d="M75 2300.81H271.66V2348.31H75ZM98.75,2310.813 H247.906 A14.75,14.75 0 0 1 262.656,2325.563 V2325.563 A14.75,14.75 0 0 1 247.906,2340.313 H98.75 A14.75,14.75 0 0 1 84,2325.563 V2325.563 A14.75,14.75 0 0 1 98.75,2310.813 Z" fill-rule="evenodd" fill="rgb(255,255,255)" fill-opacity="0.1" clip-path="url(#fcinsetclip-66)"/><text x="98" y="2315.81" dominant-baseline="text-before-edge" font-size="13px" font-weight="400" font-style="normal" font-family="SUSE, ui-sans-serif, system-ui, sans-serif" fill="rgb(3,7,17)">Download scorm2004 ZIP</text></g><g><g><text x="98.83" y="2340.31" dominant-baseline="text-before-edge" font-size="14px" font-weight="400" font-style="normal" font-family="SUSE, ui-sans-serif, system-ui, sans-serif" fill="rgb(3,7,17)">scorm2004 checksum</text></g><text x="84" y="2362.31" dominant-baseline="text-before-edge" font-size="14px" font-weight="400" font-style="normal" font-family="monospace" fill="rgb(3,7,17)">6539803cbd527f1adde3d70aeba82afbc20601e453b0beb764052c4b5ee87087</text></g><g><rect x="84" y="2361.3125" width="235.328125" height="29.5" rx="14.75" ry="14.75" fill="rgba(0,0,0,0.13)" filter="url(#shadow-67)"/><rect x="84" y="2360.3125" width="235.328125" height="29.5" rx="14.75" ry="14.75" fill="rgb(255,255,255)"/><path d="M75 2351.31H328.33V2398.81H75ZM98.75,2361.313 H304.578 A14.75,14.75 0 0 1 319.328,2376.063 V2376.063 A14.75,14.75 0 0 1 304.578,2390.813 H98.75 A14.75,14.75 0 0 1 84,2376.063 V2376.063 A14.75,14.75 0 0 1 98.75,2361.313 Z" fill-rule="evenodd" fill="rgb(255,255,255)" fill-opacity="0.1" clip-path="url(#fcinsetclip-68)"/><text x="98" y="2366.31" dominant-baseline="text-before-edge" font-size="13px" font-weight="400" font-style="normal" font-family="SUSE, ui-sans-serif, system-ui, sans-serif" fill="rgb(3,7,17)">Build selected format for this version</text></g><text x="84" y="2225.31" dominant-baseline="text-before-edge" font-size="14px" font-weight="700" font-style="normal" font-family="SUSE, ui-sans-serif, system-ui, sans-serif" fill="rgb(3,7,17)">Version 1</text><text x="146" y="2225.31" dominant-baseline="text-before-edge" font-size="14px" font-weight="400" font-style="normal" font-family="SUSE, ui-sans-serif, system-ui, sans-serif" fill="rgb(3,7,17)">scorm12 · 2026-09-12T18:42:41.982Z</text></g></g></g></g></g></svg>