<svg xmlns="http://www.w3.org/2000/svg" width="900" height="520" viewBox="0 0 900 520" xmlns:c2pa="http://c2pa.org/manifest"><metadata><c2pa:manifest>AAAHQ2p1bWIAAAAeanVtZGMycGEAEQAQgAAAqgA4m3EDYzJwYQAAAAcdanVtYgAAAEdqdW1kYzJtYQARABCAAACqADibcQN1cm46dXVpZDoxOTQ3ZTIwYy1kNDc0LTQ5YjMtYjVlMy1iNTdjMTQ0NDc1OTYAAAACa2p1bWIAAAApanVtZGMyYXMAEQAQgAAAqgA4m3EDYzJwYS5hc3NlcnRpb25zAAAAAO5qdW1iAAAAKWp1bWRjYm9yABEAEIAAAKoAOJtxA2MycGEuYWN0aW9ucy52MgAAAAC9Y2JvcqFnYWN0aW9uc4GkZmFjdGlvbmxjMnBhLmNyZWF0ZWRxZGlnaXRhbFNvdXJjZVR5cGV4Pmh0dHA6Ly9jdi5pcHRjLm9yZy9uZXdzY29kZXMvZGlnaXRhbHNvdXJjZXR5cGUvZGlnaXRhbENyZWF0aW9ubXNvZnR3YXJlQWdlbnSiZG5hbWVlTG9sbHlndmVyc2lvbmcxLjE1Mi4wZHdoZW50MjAyNi0wOC0yNVQxNDo0OTowOFoAAACranVtYgAAAChqdW1kY2JvcgARABCAAACqADibcQNjMnBhLmhhc2guZGF0YQAAAAB7Y2JvcqVqZXhjbHVzaW9uc4GiZXN0YXJ0GJZmbGVuZ3RoGQmwZG5hbWVuanVtYmYgbWFuaWZlc3RjYWxnZnNoYTI1NmRoYXNoWCA6jx8339iDHi/jNUB5Tl7rJWBSDLLbjuIMKisnrv6jnGNwYWRIAAAAAAAAAAAAAAChanVtYgAAACxqdW1kY2JvcgARABCAAACqADibcQN0b29scy5sb2xseS5leHBvcnQAAAAAbWNib3KmZ3N1cmZhY2VlYnVpbGRmZW5naW5lbW5vZGUgdjI0LjE5LjBib3NmZGFyd2luZmZvcm1hdGNzdmdkdG9vbGdiYXJjb2RlZGRhdGV4GDIwMjYtMDgtMjVUMTQ6NDk6MDguNzAwWgAAAgJqdW1iAAAAJ2p1bWRjMmNsABEAEIAAAKoAOJtxA2MycGEuY2xhaW0udjIAAAAB02Nib3KmaGRjOnRpdGxlZ2JhcmNvZGVqaW5zdGFuY2VJRHgtdXJuOnV1aWQ6NzcyMjgwMTYtYjQxYy00MGVkLThlZDgtNTg2YjMwMjAxMDQwdGNsYWltX2dlbmVyYXRvcl9pbmZvomRuYW1lZUxvbGx5Z3ZlcnNpb25nMS4xNTIuMHJjcmVhdGVkX2Fzc2VydGlvbnODomN1cmx4KnNlbGYjanVtYmY9YzJwYS5hc3NlcnRpb25zL2MycGEuYWN0aW9ucy52MmRoYXNoWCBOIOMvZG1eoCxTKg5HdLydONL0HCPtlqisjQA/6WJvRKJjdXJseClzZWxmI2p1bWJmPWMycGEuYXNzZXJ0aW9ucy9jMnBhLmhhc2guZGF0YWRoYXNoWCDif0s+1x4raYEOB4eGV02EhFRA9/irDmA8k7oD0eQqWaJjdXJseC1zZWxmI2p1bWJmPWMycGEuYXNzZXJ0aW9ucy90b29scy5sb2xseS5leHBvcnRkaGFzaFggH5YXCLSQ6QtMwDP8GTks4SHRVRHAuEsV/AgAXi4Y5HZpc2lnbmF0dXJleBlzZWxmI2p1bWJmPWMycGEuc2lnbmF0dXJlY2FsZ2ZzaGEyNTYAAAJhanVtYgAAAChqdW1kYzJjcwARABCAAACqADibcQNjMnBhLnNpZ25hdHVyZQAAAAIxY2JvctKEWQHgogEmGCGBWQHXMIIB0zCCAXmgAwIBAgIJednn5dLRR4plMAoGCCqGSM49BAMCMDUxDjAMBgNVBAoMBUxvbGx5MSMwIQYDVQQDDBpMb2xseSBPbi1EZXZpY2UgQ3JlZGVudGlhbDAeFw0yNjA4MjUxNDQ4MDhaFw0yNzA4MjUxNDQ5MDhaMDUxDjAMBgNVBAoMBUxvbGx5MSMwIQYDVQQDDBpMb2xseSBPbi1EZXZpY2UgQ3JlZGVudGlhbDBZMBMGByqGSM49AgEGCCqGSM49AwEHA0IABI9czRdAlE1gohpsgwRoMPlqzss8SmYx8JkY6JqKtjstSSLo4qPQDyi2omD/p1eB4y0foztHpqw1hcAjMwvEL/ejcjBwMAkGA1UdEwQCMAAwDgYDVR0PAQH/BAQDAgeAMBMGA1UdJQQMMAoGCCsGAQUFBwMEMB0GA1UdDgQWBBRbDq/ucV4w22xJOwTWNZkENq3t8zAfBgNVHSMEGDAWgBRbDq/ucV4w22xJOwTWNZkENq3t8zAKBggqhkjOPQQDAgNIADBFAiApvP7Z3kaiQzCwz8+JicemNTEv6YFdaez7OeYBp15LOAIhAJvTzqpNSuTloM/eGQ1UmtQ8zMYySMVhHvPImkKslhQ1oPZYQJ3sSp4KC3vwpnLuDykPcU2P8LnR9bdTKZMlCNlG0TRKk4xRQZzpfVBz+FyKoKuGz3crAA7vcAQQAama9GZ3Muk=</c2pa:manifest></metadata><path fill="#f2f6f8" d="M0 0h900v520H0z"/><svg xmlns="http://www.w3.org/2000/svg" width="846" height="466" x="27" y="27" aria-label="EAN-8 96385074" class="bc-svg" color="#030711" viewBox="-44 0 356 154"><path fill="#f2f6f8" d="M-44 0h356v154H-44z" style="fill:#f2f6f8"/><path fill="#14324a" d="M0 8h4v140H0zm8 0h4v140H8zm16 0h4v120h-4zm8 0h8v120h-8zm12 0h4v120h-4zm8 0h16v120H52zm20 0h16v120H72zm20 0h4v120h-4zm8 0h8v120h-8zm12 0h12v120h-12zm16 0h4v140h-4zm8 0h4v140h-4zm8 0h4v120h-4zm12 0h12v120h-12zm16 0h12v120h-12zm20 0h4v120h-4zm8 0h4v120h-4zm16 0h4v120h-4zm12 0h4v120h-4zm8 0h12v120h-12zm20 0h4v140h-4zm8 0h4v140h-4z" shape-rendering="crispEdges" style="fill:#14324a"/><g fill="#14324a" font-family="ui-monospace, Menlo, Consolas, monospace" font-size="24" style="fill:#14324a" text-anchor="middle"><text x="26" y="148" style="fill:#14324a;font-family:&quot;SUSE Mono&quot;,&quot;Roboto Mono&quot;,ui-monospace,monospace;font-size:24px;text-anchor:middle">9</text><text x="54" y="148" style="fill:#14324a;font-family:&quot;SUSE Mono&quot;,&quot;Roboto Mono&quot;,ui-monospace,monospace;font-size:24px;text-anchor:middle">6</text><text x="82" y="148" style="fill:#14324a;font-family:&quot;SUSE Mono&quot;,&quot;Roboto Mono&quot;,ui-monospace,monospace;font-size:24px;text-anchor:middle">3</text><text x="110" y="148" style="fill:#14324a;font-family:&quot;SUSE Mono&quot;,&quot;Roboto Mono&quot;,ui-monospace,monospace;font-size:24px;text-anchor:middle">8</text><text x="158" y="148" style="fill:#14324a;font-family:&quot;SUSE Mono&quot;,&quot;Roboto Mono&quot;,ui-monospace,monospace;font-size:24px;text-anchor:middle">5</text><text x="186" y="148" style="fill:#14324a;font-family:&quot;SUSE Mono&quot;,&quot;Roboto Mono&quot;,ui-monospace,monospace;font-size:24px;text-anchor:middle">0</text><text x="214" y="148" style="fill:#14324a;font-family:&quot;SUSE Mono&quot;,&quot;Roboto Mono&quot;,ui-monospace,monospace;font-size:24px;text-anchor:middle">7</text><text x="242" y="148" style="fill:#14324a;font-family:&quot;SUSE Mono&quot;,&quot;Roboto Mono&quot;,ui-monospace,monospace;font-size:24px;text-anchor:middle">4</text></g></svg></svg>