<svg xmlns="http://www.w3.org/2000/svg" width="600" height="600" viewBox="0 0 600 600" xmlns:c2pa="http://c2pa.org/manifest"><metadata><c2pa:manifest>AAAHQ2p1bWIAAAAeanVtZGMycGEAEQAQgAAAqgA4m3EDYzJwYQAAAAcdanVtYgAAAEdqdW1kYzJtYQARABCAAACqADibcQN1cm46dXVpZDo2NDc1ZWY3NS01ODU4LTQ2OTUtOThlZi1iNzZmMTM5NDRkOGQAAAACa2p1bWIAAAApanVtZGMyYXMAEQAQgAAAqgA4m3EDYzJwYS5hc3NlcnRpb25zAAAAAO5qdW1iAAAAKWp1bWRjYm9yABEAEIAAAKoAOJtxA2MycGEuYWN0aW9ucy52MgAAAAC9Y2JvcqFnYWN0aW9uc4GkZmFjdGlvbmxjMnBhLmNyZWF0ZWRxZGlnaXRhbFNvdXJjZVR5cGV4Pmh0dHA6Ly9jdi5pcHRjLm9yZy9uZXdzY29kZXMvZGlnaXRhbHNvdXJjZXR5cGUvZGlnaXRhbENyZWF0aW9ubXNvZnR3YXJlQWdlbnSiZG5hbWVlTG9sbHlndmVyc2lvbmcxLjE0OS4wZHdoZW50MjAyNi0wOC0yNFQwODoyNzoxM1oAAACranVtYgAAAChqdW1kY2JvcgARABCAAACqADibcQNjMnBhLmhhc2guZGF0YQAAAAB7Y2JvcqVqZXhjbHVzaW9uc4GiZXN0YXJ0GJZmbGVuZ3RoGQmwZG5hbWVuanVtYmYgbWFuaWZlc3RjYWxnZnNoYTI1NmRoYXNoWCB3z3dPH7Uzmtb0H8bMBY6LKHMFtC5IvFHdTJTz78ItbGNwYWRIAAAAAAAAAAAAAAChanVtYgAAACxqdW1kY2JvcgARABCAAACqADibcQN0b29scy5sb2xseS5leHBvcnQAAAAAbWNib3KmZ3N1cmZhY2VlYnVpbGRmZW5naW5lbW5vZGUgdjI0LjE5LjBib3NmZGFyd2luZmZvcm1hdGNzdmdkdG9vbGdxci1jb2RlZGRhdGV4GDIwMjYtMDgtMjRUMDg6Mjc6MTMuNjU5WgAAAgJqdW1iAAAAJ2p1bWRjMmNsABEAEIAAAKoAOJtxA2MycGEuY2xhaW0udjIAAAAB02Nib3KmaGRjOnRpdGxlZ3FyLWNvZGVqaW5zdGFuY2VJRHgtdXJuOnV1aWQ6MjdjMmE3YjktM2MxMy00OWQ2LWFmZjItODBmZmUyN2UxMzVkdGNsYWltX2dlbmVyYXRvcl9pbmZvomRuYW1lZUxvbGx5Z3ZlcnNpb25nMS4xNDkuMHJjcmVhdGVkX2Fzc2VydGlvbnODomN1cmx4KnNlbGYjanVtYmY9YzJwYS5hc3NlcnRpb25zL2MycGEuYWN0aW9ucy52MmRoYXNoWCD1mWFS3NCW4D9FVEuoF3i3JC4FZ2eibkEpgWJGZfRD7qJjdXJseClzZWxmI2p1bWJmPWMycGEuYXNzZXJ0aW9ucy9jMnBhLmhhc2guZGF0YWRoYXNoWCB9JmejDW2OaaTkNEEaHUTJPD29++bb0jti0TgwfgUOjaJjdXJseC1zZWxmI2p1bWJmPWMycGEuYXNzZXJ0aW9ucy90b29scy5sb2xseS5leHBvcnRkaGFzaFgg2PoduoyiY/Rc0xvFp93dp1kKdGm3IIe2O08cpc9f2Qppc2lnbmF0dXJleBlzZWxmI2p1bWJmPWMycGEuc2lnbmF0dXJlY2FsZ2ZzaGEyNTYAAAJhanVtYgAAAChqdW1kYzJjcwARABCAAACqADibcQNjMnBhLnNpZ25hdHVyZQAAAAIxY2JvctKEWQHgogEmGCGBWQHXMIIB0zCCAXmgAwIBAgIJXKHwgeb5zT7DMAoGCCqGSM49BAMCMDUxDjAMBgNVBAoMBUxvbGx5MSMwIQYDVQQDDBpMb2xseSBPbi1EZXZpY2UgQ3JlZGVudGlhbDAeFw0yNjA4MjQwODI2MTNaFw0yNzA4MjQwODI3MTNaMDUxDjAMBgNVBAoMBUxvbGx5MSMwIQYDVQQDDBpMb2xseSBPbi1EZXZpY2UgQ3JlZGVudGlhbDBZMBMGByqGSM49AgEGCCqGSM49AwEHA0IABBtY07x5oPKD0FgetH8/VRGHW8h4ZsRT/YfidxMtE3ps9Uh1v6TqFdAOrViwMH6Y5ZgIdtMIN15kbC6XanOjf9ujcjBwMAkGA1UdEwQCMAAwDgYDVR0PAQH/BAQDAgeAMBMGA1UdJQQMMAoGCCsGAQUFBwMEMB0GA1UdDgQWBBT+wd9OMm3cfs6R+UlCO9KPeKl4WjAfBgNVHSMEGDAWgBT+wd9OMm3cfs6R+UlCO9KPeKl4WjAKBggqhkjOPQQDAgNIADBFAiBbzbGoOGbI2mvz5gKiHWVKOhfOP7g5Q5NmWUqSnH/lRQIhAKQRnA1i0bzFBZXEIJBzfrksqbZmQCEQODG+kXWZ0IrDoPZYQC/gcTKVuP0cR/oz6r4eoG8zMCI9yAykdapgfcb0lPydMB2WQUcoACMATMcC9K/1iE5tOvZSjLXTsYJOLyAm2MI=</c2pa:manifest></metadata><path d="M0 0h600v600H0z" style="fill:#fff;shape-rendering:crispEdges"/><path d="M72.73 72.73v18.18h18.18V72.73zm18.18 0v18.18h18.18V72.73zm18.18 0v18.18h18.18V72.73zm18.18 0v18.18h18.18V72.73zm18.18 0v18.18h18.19V72.73zm18.19 0v18.18h18.18V72.73zm18.18 0v18.18H200V72.73zm36.36 0v18.18h18.18V72.73zm18.18 0v18.18h18.19V72.73zm36.37 0v18.18h18.18V72.73zm18.18 0v18.18h18.18V72.73zm18.18 0v18.18h18.18V72.73zm18.18 0v18.18h18.18V72.73zm18.18 0v18.18h18.19V72.73zm18.19 0v18.18h18.18V72.73zm36.36 0v18.18h18.18V72.73zm18.18 0v18.18h18.18V72.73zm18.18 0v18.18h18.19V72.73zm18.19 0v18.18h18.18V72.73zm18.18 0v18.18h18.18V72.73zm18.18 0v18.18h18.18V72.73zm18.18 0v18.18h18.18V72.73zM72.73 90.91v18.18h18.18V90.91zm109.09 0v18.18H200V90.91zm72.73 0v18.18h18.18V90.91zm36.36 0v18.18h18.18V90.91zm109.09 0v18.18h18.18V90.91zm109.09 0v18.18h18.18V90.91zM72.73 109.09v18.18h18.18v-18.18zm36.36 0v18.18h18.18v-18.18zm18.18 0v18.18h18.18v-18.18zm18.18 0v18.18h18.19v-18.18zm36.37 0v18.18H200v-18.18zm54.54 0v18.18h18.19v-18.18zm18.19 0v18.18h18.18v-18.18zm36.36 0v18.18h18.18v-18.18zm109.09 0v18.18h18.18v-18.18zm36.36 0v18.18h18.19v-18.18zm18.19 0v18.18h18.18v-18.18zm18.18 0v18.18h18.18v-18.18zm36.36 0v18.18h18.18v-18.18zM72.73 127.27v18.18h18.18v-18.18zm36.36 0v18.18h18.18v-18.18zm18.18 0v18.18h18.18v-18.18zm18.18 0v18.18h18.19v-18.18zm36.37 0v18.18H200v-18.18zm72.73 0v18.18h18.18v-18.18zm18.18 0v18.18h18.18v-18.18zm18.18 0v18.18h18.18v-18.18zm72.73 0v18.18h18.18v-18.18zm36.36 0v18.18h18.18v-18.18zm36.36 0v18.18h18.19v-18.18zm18.19 0v18.18h18.18v-18.18zm18.18 0v18.18h18.18v-18.18zm36.36 0v18.18h18.18v-18.18zM72.73 145.45v18.19h18.18v-18.19zm36.36 0v18.19h18.18v-18.19zm18.18 0v18.19h18.18v-18.19zm18.18 0v18.19h18.19v-18.19zm36.37 0v18.19H200v-18.19zm54.54 0v18.19h18.19v-18.19zm36.37 0v18.19h18.18v-18.19zm36.36 0v18.19h18.18v-18.19zm36.36 0v18.19h18.19v-18.19zm54.55 0v18.19h18.18v-18.19zm36.36 0v18.19h18.19v-18.19zm18.19 0v18.19h18.18v-18.19zm18.18 0v18.19h18.18v-18.19zm36.36 0v18.19h18.18v-18.19zM72.73 163.64v18.18h18.18v-18.18zm109.09 0v18.18H200v-18.18zm54.54 0v18.18h18.19v-18.18zm18.19 0v18.18h18.18v-18.18zm18.18 0v18.18h18.18v-18.18zm18.18 0v18.18h18.18v-18.18zm18.18 0v18.18h18.18v-18.18zm18.18 0v18.18h18.18v-18.18zm18.18 0v18.18h18.19v-18.18zm54.55 0v18.18h18.18v-18.18zm109.09 0v18.18h18.18v-18.18zM72.73 181.82V200h18.18v-18.18zm18.18 0V200h18.18v-18.18zm18.18 0V200h18.18v-18.18zm18.18 0V200h18.18v-18.18zm18.18 0V200h18.19v-18.18zm18.19 0V200h18.18v-18.18zm18.18 0V200H200v-18.18zm36.36 0V200h18.18v-18.18zm36.37 0V200h18.18v-18.18zm36.36 0V200h18.18v-18.18zm36.36 0V200h18.18v-18.18zm36.37 0V200h18.18v-18.18zm36.36 0V200h18.18v-18.18zm18.18 0V200h18.18v-18.18zm18.18 0V200h18.19v-18.18zm18.19 0V200h18.18v-18.18zm18.18 0V200h18.18v-18.18zm18.18 0V200h18.18v-18.18zm18.18 0V200h18.18v-18.18zM254.55 200v18.18h18.18V200zm54.54 0v18.18h18.18V200zm18.18 0v18.18h18.18V200zm18.18 0v18.18h18.19V200zm18.19 0v18.18h18.18V200zM90.91 218.18v18.18h18.18v-18.18zm18.18 0v18.18h18.18v-18.18zm18.18 0v18.18h18.18v-18.18zm54.55 0v18.18H200v-18.18zm18.18 0v18.18h18.18v-18.18zm18.18 0v18.18h18.18v-18.18zm18.18 0v18.18h18.19v-18.18zm18.19 0v18.18h18.18v-18.18zm18.18 0v18.18h18.18v-18.18zm18.18 0v18.18h18.18v-18.18zm18.18 0v18.18h18.18v-18.18zm18.18 0v18.18h18.18v-18.18zm18.18 0v18.18h18.19v-18.18zm18.19 0v18.18h18.18v-18.18zm18.18 0v18.18H400v-18.18zm127.27 0v18.18h18.18v-18.18zM72.73 236.36v18.19h18.18v-18.19zm36.36 0v18.19h18.18v-18.19zm36.36 0v18.19h18.19v-18.19zm200 0v18.19h18.19v-18.19zm18.19 0v18.19h18.18v-18.19zm54.54 0v18.19h18.18v-18.19zm18.18 0v18.19h18.19v-18.19zm18.19 0v18.19h18.18v-18.19zm18.18 0v18.19h18.18v-18.19zm36.36 0v18.19h18.18v-18.19zm-400 18.19v18.18h18.18v-18.18zm54.55 0v18.18h18.18v-18.18zm18.18 0v18.18H200v-18.18zm36.36 0v18.18h18.18v-18.18zm54.55 0v18.18h18.18v-18.18zm72.72 0v18.18h18.19v-18.18zm18.19 0v18.18h18.18v-18.18zm18.18 0v18.18H400v-18.18zm36.36 0v18.18h18.18v-18.18zM90.91 272.73v18.18h18.18v-18.18zm18.18 0v18.18h18.18v-18.18zm18.18 0v18.18h18.18v-18.18zm36.37 0v18.18h18.18v-18.18zm54.54 0v18.18h18.18v-18.18zm54.55 0v18.18h18.18v-18.18zm54.54 0v18.18h18.18v-18.18zm18.18 0v18.18h18.19v-18.18zm18.19 0v18.18h18.18v-18.18zm36.36 0v18.18h18.18v-18.18zm72.73 0v18.18h18.18v-18.18zm18.18 0v18.18h18.18v-18.18zM72.73 290.91v18.18h18.18v-18.18zm18.18 0v18.18h18.18v-18.18zm36.36 0v18.18h18.18v-18.18zm18.18 0v18.18h18.19v-18.18zm36.37 0v18.18H200v-18.18zm18.18 0v18.18h18.18v-18.18zm72.73 0v18.18h18.18v-18.18zm18.18 0v18.18h18.18v-18.18zm36.36 0v18.18h18.18v-18.18zm54.55 0v18.18H400v-18.18zm36.36 0v18.18h18.18v-18.18zm18.18 0v18.18h18.19v-18.18zm36.37 0v18.18h18.18v-18.18zm-345.46 18.18v18.18h18.18v-18.18zm36.37 0v18.18h18.18v-18.18zm72.72 0v18.18h18.19v-18.18zm18.19 0v18.18h18.18v-18.18zm18.18 0v18.18h18.18v-18.18zm18.18 0v18.18h18.18v-18.18zm90.91 0v18.18H400v-18.18zm36.36 0v18.18h18.18v-18.18zm90.91 0v18.18h18.18v-18.18zM72.73 327.27v18.18h18.18v-18.18zm18.18 0v18.18h18.18v-18.18zm54.54 0v18.18h18.19v-18.18zm36.37 0v18.18H200v-18.18zm18.18 0v18.18h18.18v-18.18zm36.36 0v18.18h18.19v-18.18zm18.19 0v18.18h18.18v-18.18zm127.27 0v18.18H400v-18.18zm54.54 0v18.18h18.19v-18.18zm18.19 0v18.18h18.18v-18.18zm36.36 0v18.18h18.18v-18.18zm18.18 0v18.18h18.18v-18.18zm-381.82 18.18v18.19h18.18v-18.19zm72.73 0v18.19h18.18v-18.19zm36.36 0v18.19h18.19v-18.19zm18.19 0v18.19h18.18v-18.19zm36.36 0v18.19h18.18v-18.19zm18.18 0v18.19h18.18v-18.19zm18.18 0v18.19h18.18v-18.19zm18.18 0v18.19h18.19v-18.19zm90.91 0v18.19h18.19v-18.19zm18.19 0v18.19h18.18v-18.19zm18.18 0v18.19h18.18v-18.19zm18.18 0v18.19h18.18v-18.19zm-400 18.19v18.18h18.18v-18.18zm18.18 0v18.18h18.18v-18.18zm18.18 0v18.18h18.18v-18.18zm18.18 0v18.18h18.19v-18.18zm18.19 0v18.18h18.18v-18.18zm18.18 0v18.18H200v-18.18zm18.18 0v18.18h18.18v-18.18zm72.73 0v18.18h18.18v-18.18zm36.36 0v18.18h18.18v-18.18zm54.55 0v18.18h18.18v-18.18zm18.18 0v18.18H400v-18.18zm18.18 0v18.18h18.18v-18.18zm18.18 0v18.18h18.18v-18.18zm18.18 0v18.18h18.19v-18.18zm18.19 0v18.18h18.18v-18.18zm18.18 0v18.18h18.18v-18.18zm18.18 0v18.18h18.18v-18.18zm18.18 0v18.18h18.18v-18.18zm-290.91 18.18V400h18.18v-18.18zm36.37 0V400h18.18v-18.18zm18.18 0V400h18.18v-18.18zm54.54 0V400h18.18v-18.18zm36.37 0V400h18.18v-18.18zm72.72 0V400h18.19v-18.18zm18.19 0V400h18.18v-18.18zm36.36 0V400h18.18v-18.18zm18.18 0V400h18.18v-18.18zM72.73 400v18.18h18.18V400zm18.18 0v18.18h18.18V400zm18.18 0v18.18h18.18V400zm18.18 0v18.18h18.18V400zm18.18 0v18.18h18.19V400zm18.19 0v18.18h18.18V400zm18.18 0v18.18H200V400zm36.36 0v18.18h18.18V400zm72.73 0v18.18h18.18V400zm54.54 0v18.18h18.19V400zm18.19 0v18.18h18.18V400zm36.36 0v18.18h18.18V400zm36.36 0v18.18h18.19V400zm18.19 0v18.18h18.18V400zm54.54 0v18.18h18.18V400zM72.73 418.18v18.18h18.18v-18.18zm109.09 0v18.18H200v-18.18zm54.54 0v18.18h18.19v-18.18zm36.37 0v18.18h18.18v-18.18zm18.18 0v18.18h18.18v-18.18zm18.18 0v18.18h18.18v-18.18zm18.18 0v18.18h18.18v-18.18zm18.18 0v18.18h18.19v-18.18zm18.19 0v18.18h18.18v-18.18zm72.72 0v18.18h18.19v-18.18zm54.55 0v18.18h18.18v-18.18zM72.73 436.36v18.19h18.18v-18.19zm36.36 0v18.19h18.18v-18.19zm18.18 0v18.19h18.18v-18.19zm18.18 0v18.19h18.19v-18.19zm36.37 0v18.19H200v-18.19zm54.54 0v18.19h18.19v-18.19zm36.37 0v18.19h18.18v-18.19zm54.54 0v18.19h18.18v-18.19zm36.37 0v18.19h18.18v-18.19zm18.18 0v18.19H400v-18.19zm18.18 0v18.19h18.18v-18.19zm18.18 0v18.19h18.18v-18.19zm18.18 0v18.19h18.19v-18.19zm54.55 0v18.19h18.18v-18.19zM72.73 454.55v18.18h18.18v-18.18zm36.36 0v18.18h18.18v-18.18zm18.18 0v18.18h18.18v-18.18zm18.18 0v18.18h18.19v-18.18zm36.37 0v18.18H200v-18.18zm36.36 0v18.18h18.18v-18.18zm18.18 0v18.18h18.19v-18.18zm18.19 0v18.18h18.18v-18.18zm18.18 0v18.18h18.18v-18.18zm54.54 0v18.18h18.18v-18.18zm18.18 0v18.18h18.19v-18.18zm127.28 0v18.18h18.18v-18.18zm36.36 0v18.18h18.18v-18.18zM72.73 472.73v18.18h18.18v-18.18zm36.36 0v18.18h18.18v-18.18zm18.18 0v18.18h18.18v-18.18zm18.18 0v18.18h18.19v-18.18zm36.37 0v18.18H200v-18.18zm36.36 0v18.18h18.18v-18.18zm18.18 0v18.18h18.19v-18.18zm109.09 0v18.18h18.19v-18.18zm18.19 0v18.18h18.18v-18.18zm72.72 0v18.18h18.19v-18.18zm36.37 0v18.18h18.18v-18.18zm-400 18.18v18.18h18.18v-18.18zm109.09 0v18.18H200v-18.18zm36.36 0v18.18h18.18v-18.18zm18.18 0v18.18h18.19v-18.18zm18.19 0v18.18h18.18v-18.18zm54.54 0v18.18h18.18v-18.18zm18.18 0v18.18h18.18v-18.18zm90.91 0v18.18h18.18v-18.18zm36.37 0v18.18h18.18v-18.18zM72.73 509.09v18.18h18.18v-18.18zm18.18 0v18.18h18.18v-18.18zm18.18 0v18.18h18.18v-18.18zm18.18 0v18.18h18.18v-18.18zm18.18 0v18.18h18.19v-18.18zm18.19 0v18.18h18.18v-18.18zm18.18 0v18.18H200v-18.18zm72.73 0v18.18h18.18v-18.18zm18.18 0v18.18h18.18v-18.18zm18.18 0v18.18h18.18v-18.18zm36.36 0v18.18h18.18v-18.18zm18.18 0v18.18h18.19v-18.18zm54.55 0v18.18h18.18v-18.18zm36.36 0v18.18h18.19v-18.18zm18.19 0v18.18h18.18v-18.18zm18.18 0v18.18h18.18v-18.18zm18.18 0v18.18h18.18v-18.18zm18.18 0v18.18h18.18v-18.18z" style="fill:#1d1d1d;shape-rendering:crispEdges"/></svg>